<svg width="270" height="69" viewBox="0 0 270 69" fill="none" xmlns="http://www.w3.org/2000/svg">
<path d="M66.9878 13.686V54.854H58.5918V13.686H66.9878ZM101.2 27.082V54.912C101.2 63.538 94.4718 68.828 86.2498 68.828C78.3138 68.828 72.3918 63.882 71.8178 56.924L80.1558 56.984C80.4998 59.914 83.0878 61.238 86.5358 61.238C89.7558 61.238 92.8058 59.512 92.8058 54.97V51.462C90.6778 52.842 87.9178 53.648 84.8698 53.648C77.2218 53.648 71.0698 47.438 71.0698 40.308C71.0698 32.028 77.2218 26.45 84.8698 26.45C87.9178 26.45 90.6778 27.254 92.8058 28.636V27.14L101.2 27.082V27.082ZM92.8058 43.47V36.686C91.0798 34.212 88.7218 33.35 86.3658 33.35C82.2258 33.35 79.4058 36.11 79.4058 40.308C79.4058 43.412 82.2818 46.748 86.3658 46.748C88.7218 46.806 91.1378 45.942 92.8058 43.47ZM134.664 40.652C134.664 49.22 128.34 55.314 119.83 55.314C111.262 55.314 104.938 49.22 104.938 40.654C104.938 32.142 111.262 25.934 119.83 25.934C128.34 25.934 134.664 32.142 134.664 40.654V40.652ZM126.558 40.652C126.558 36.628 123.912 33.35 119.83 33.35C115.69 33.35 113.046 36.628 113.046 40.652C113.046 44.792 115.69 47.898 119.83 47.898C123.912 47.84 126.558 44.792 126.558 40.652ZM186.76 27.14V54.798L178.538 54.854V53.302C176.41 54.682 173.65 55.546 170.602 55.546C162.956 55.546 156.802 49.046 156.802 41.056C156.802 33.006 162.956 26.508 170.602 26.508C173.65 26.508 176.41 27.37 178.538 28.75V27.198L186.76 27.14V27.14ZM178.48 45.252V36.8C176.756 34.328 174.34 33.638 171.926 33.638C167.726 33.638 164.794 37.03 164.794 41.056C164.794 45.022 167.728 48.416 171.926 48.416C174.34 48.416 176.756 47.726 178.48 45.252ZM220.57 39.848V54.854H212.462V40.826C212.462 36.282 210.22 33.926 206.196 33.926C204.126 33.926 201.768 35.132 199.812 37.432V54.854H191.532V27.2H199.812V29.27C202.054 27.486 204.7 26.51 207.804 26.51C215.164 26.51 220.57 31.684 220.57 39.85V39.848Z" fill="white"/>
<path d="M262.488 14.72H260.418V19.608H259.21V14.72H257.14V13.628H262.43L262.488 14.72ZM269.502 19.664H268.296V16.272L266.742 18.746H265.996L264.384 16.214V19.608H263.178V13.628H264.04L266.34 17.25L268.64 13.628H269.502V19.664Z" fill="white"/>
<path d="M54.7399 54.798H46.2299L40.6519 34.156L28.6919 54.798H19.1479L37.6039 22.828L34.6159 11.672L9.71788 54.798H0.171875L31.7399 0.115997H40.1339L43.7579 13.742H52.3819L46.5179 23.978L54.7399 54.798ZM253.978 13.686V54.854H245.582V53.302C243.456 54.682 240.694 55.546 237.648 55.546C230 55.546 223.848 49.046 223.848 40.998C223.848 33.006 230 26.508 237.648 26.508C240.694 26.508 243.456 27.37 245.582 28.75V13.686H253.978ZM245.582 45.252V36.742C243.858 34.27 241.384 33.58 238.97 33.58C234.716 33.58 231.782 36.972 231.782 40.998C231.782 45.08 234.714 48.472 238.97 48.472C241.384 48.472 243.8 47.782 245.582 45.252ZM155.25 34.156C153.41 34.384 149.156 34.616 146.624 38.064V54.854H138.344V27.254H146.624V29.324C148.524 27.714 151.34 26.738 155.25 27.14V34.156Z" fill="white"/>
</svg>
