<svg xmlns="http://www.w3.org/2000/svg" width="47.329" height="28.301" viewBox="0 0 47.329 28.301"><g id="aws" transform="translate(-1.668 -1.1)"><path id="Path_15853" data-name="Path 15853" d="M25.481 11.379a4.763 4.763.0 0 0 .173 1.4 8.426 8.426.0 0 0 .5 1.133.685.685.0 0 1 .11.362.623.623.0 0 1-.3.472l-.992.661a.755.755.0 0 1-.409.142.724.724.0 0 1-.472-.22 4.87 4.87.0 0 1-.567-.74c-.157-.268-.315-.567-.488-.929a5.815 5.815.0 0 1-4.628 2.172A4.313 4.313.0 0 1 15.265 14.7 4.044 4.044.0 0 1 14.1 11.678a4.052 4.052.0 0 1 1.432-3.243 5.726 5.726.0 0 1 3.857-1.228 12.463 12.463.0 0 1 1.669.126c.582.079 1.181.2 1.81.346V6.531a3.488 3.488.0 0 0-.74-2.519 3.623 3.623.0 0 0-2.566-.724 7.162 7.162.0 0 0-1.7.2 12.543 12.543.0 0 0-1.7.535 4.517 4.517.0 0 1-.551.2.966.966.0 0 1-.252.047c-.22.0-.331-.157-.331-.488V3.02a1 1 0 0 1 .11-.551 1.179 1.179.0 0 1 .441-.331 9.062 9.062.0 0 1 1.983-.708 9.543 9.543.0 0 1 2.456-.3 5.752 5.752.0 0 1 4.124 1.275 5.209 5.209.0 0 1 1.307 3.872v5.1zM19.09 13.772a5.1 5.1.0 0 0 1.621-.283 3.508 3.508.0 0 0 1.5-1.007 2.5 2.5.0 0 0 .535-1.007A5.651 5.651.0 0 0 22.9 10.1V9.443a13.145 13.145.0 0 0-1.448-.268 11.861 11.861.0 0 0-1.48-.094 3.629 3.629.0 0 0-2.345.63 2.194 2.194.0 0 0-.771 1.81 2.031 2.031.0 0 0 2.235 2.251zm12.64 1.7a.879.879.0 0 1-.6-.157A1.283 1.283.0 0 1 30.8 14.7L27.1 2.532a2.757 2.757.0 0 1-.142-.63.345.345.0 0 1 .378-.394h1.543a.873.873.0 0 1 .614.157 1.288 1.288.0 0 1 .315.614L32.454 12.7 34.91 2.281a1.1 1.1.0 0 1 .3-.614 1.083 1.083.0 0 1 .63-.157H37.1a.947.947.0 0 1 .63.157 1.061 1.061.0 0 1 .3.614l2.487 10.547L43.237 2.281a1.35 1.35.0 0 1 .315-.614 1.027 1.027.0 0 1 .614-.157h1.464a.35.35.0 0 1 .394.394 1.57 1.57.0 0 1-.031.252 2.24 2.24.0 0 1-.11.394L42.088 14.716a1.207 1.207.0 0 1-.331.614 1.007 1.007.0 0 1-.6.157H39.805a.947.947.0 0 1-.63-.157 1.116 1.116.0 0 1-.3-.63L36.437 4.547 34.013 14.685a1.229 1.229.0 0 1-.3.63.976.976.0 0 1-.63.157zm20.227.425a10.417 10.417.0 0 1-2.424-.283 7.161 7.161.0 0 1-1.81-.63 1.134 1.134.0 0 1-.488-.441 1.111 1.111.0 0 1-.094-.441v-.8c0-.331.126-.488.362-.488a.891.891.0 0 1 .283.047c.094.031.236.094.394.157a8.562 8.562.0 0 0 1.732.551 9.453 9.453.0 0 0 1.873.189 4.247 4.247.0 0 0 2.3-.519 1.7 1.7.0 0 0 .819-1.5 1.533 1.533.0 0 0-.425-1.1 3.949 3.949.0 0 0-1.59-.819L50.6 9.112a4.8 4.8.0 0 1-2.519-1.606A3.75 3.75.0 0 1 47.3 5.224a3.5 3.5.0 0 1 .425-1.747 4.047 4.047.0 0 1 1.133-1.291 5 5 0 0 1 1.637-.819A6.861 6.861.0 0 1 52.477 1.1a7.9 7.9.0 0 1 1.055.063c.362.047.693.11 1.023.173.315.079.614.157.9.252a3.436 3.436.0 0 1 .661.283 1.361 1.361.0 0 1 .472.394.848.848.0 0 1 .142.519v.74c0 .331-.126.5-.362.5a1.637 1.637.0 0 1-.6-.189 7.2 7.2.0 0 0-3.022-.614 4.063 4.063.0 0 0-2.094.441 1.52 1.52.0 0 0-.74 1.4 1.486 1.486.0 0 0 .472 1.118 4.7 4.7.0 0 0 1.732.866l2.235.708A4.788 4.788.0 0 1 56.79 9.27a3.562 3.562.0 0 1 .724 2.2A4.047 4.047.0 0 1 57.1 13.3a4.233 4.233.0 0 1-1.149 1.385 5.074 5.074.0 0 1-1.747.882A7.485 7.485.0 0 1 51.957 15.9z" transform="translate(-10.475)" fill="#252f3e"/><g id="Group_783" data-name="Group 783" transform="translate(1.668 18.745)"><path id="Path_15854" data-name="Path 15854" d="M44.457 123.009c-5.179 3.825-12.7 5.856-19.173 5.856a34.686 34.686.0 0 1-23.407-8.925c-.488-.441-.047-1.039.535-.693A46.489 46.489.0 0 0 43.7 121.812C44.568 121.419 45.307 122.379 44.457 123.009z" transform="translate(-1.668 -118.206)" fill="#f90" fill-rule="evenodd"/><path id="Path_15855" data-name="Path 15855" d="M252.474 115.539c-.661-.85-4.376-.409-6.06-.2-.5.063-.582-.378-.126-.708 2.959-2.078 7.823-1.48 8.39-.787.567.708-.157 5.572-2.928 7.9-.425.362-.834.173-.645-.3C251.734 119.883 253.135 116.373 252.474 115.539z" transform="translate(-207.528 -113.192)" fill="#f90" fill-rule="evenodd"/></g></g></svg>