<svg width="154" height="24" viewBox="0 0 154 24" fill="none" xmlns="http://www.w3.org/2000/svg">
<g clip-path="url(#clip0_3563_4816)">
<path d="M18.3667 23.5025H22.7751V0H18.3667V23.5025Z" fill="white"/>
<path d="M36.2982 15.3482C36.2982 12.2659 34.3098 10.7089 32.155 10.7089C30.0003 10.7089 28.0119 12.2659 28.0119 15.3482C28.0119 18.3989 30.0003 19.9888 32.155 19.9888C34.3098 19.9888 36.2982 18.4318 36.2982 15.3482ZM40.7066 15.3482C40.7066 20.3543 37.0278 24 32.155 24C27.2822 24 23.6035 20.3543 23.6035 15.3482C23.6035 10.3104 27.2822 6.69769 32.155 6.69769C37.0278 6.69769 40.7066 10.3104 40.7066 15.3482Z" fill="white"/>
<path d="M45.4933 15.4005C45.4933 18.3508 47.4158 20.0081 49.6695 20.0081C51.9231 20.0081 53.0513 18.5171 53.4155 17.257L57.2934 18.5501C56.5638 21.2682 54.0119 24.0523 49.6695 24.0523C44.8639 24.0523 41.085 20.4066 41.085 15.4005C41.085 10.3627 44.7966 6.75 49.5375 6.75C53.9789 6.75 56.4978 9.50112 57.1944 12.2522L53.2492 13.5783C52.852 12.2193 51.8241 10.8272 49.6365 10.8272C47.3828 10.8272 45.4933 12.4515 45.4933 15.4005Z" fill="white"/>
<path d="M67.1695 14.0564L73.8316 23.5025H68.4296L64.1202 17.2706L62.298 19.1945V23.5025H57.8896V0H62.298V13.2607L67.9322 7.19512H73.6996" fill="white"/>
<path d="M86.9702 7.19507L90.484 17.7021L93.5005 7.19507H97.876L92.7707 23.5025H88.3622L84.5507 12.3661L80.806 23.5025H76.33L71.1274 7.19507H75.7667L78.7832 17.6691L82.33 7.19507" fill="white"/>
<path d="M109.636 15.3482C109.636 12.2659 107.647 10.7089 105.492 10.7089C103.338 10.7089 101.349 12.2659 101.349 15.3482C101.349 18.3989 103.338 19.9888 105.492 19.9888C107.647 19.9888 109.636 18.4318 109.636 15.3482ZM114.044 15.3482C114.044 20.3543 110.365 24 105.492 24C100.62 24 96.9409 20.3543 96.9409 15.3482C96.9409 10.3104 100.62 6.69769 105.492 6.69769C110.365 6.69769 114.044 10.3104 114.044 15.3482Z" fill="white"/>
<path d="M124.815 11.5705C124.318 11.4702 123.887 11.4372 123.489 11.4372C121.236 11.4372 119.279 12.5311 119.279 16.0448V23.5025H114.871V7.1951H119.147V9.615C120.142 7.46031 122.396 7.06183 123.788 7.06183C124.152 7.06183 124.483 7.09481 124.815 7.12781" fill="white"/>
<path d="M134.798 14.0564L141.461 23.5025H136.058L131.75 17.2706L129.927 19.1945V23.5025H125.519V0H129.927V13.2607L135.561 7.19512H141.329" fill="white"/>
<path d="M144.045 18.1323C144.144 19.4254 145.105 20.6182 147.028 20.6182C148.487 20.6182 149.182 19.8569 149.182 18.9953C149.182 18.2656 148.686 17.6692 147.426 17.4039L145.271 16.9065C142.123 16.2111 140.696 14.3216 140.696 12.0337C140.696 9.11761 143.283 6.69769 146.797 6.69769C151.436 6.69769 152.994 9.64801 153.194 11.4043L149.515 12.2329C149.381 11.2723 148.686 10.0452 146.83 10.0452C145.668 10.0452 144.741 10.7419 144.741 11.6695C144.741 12.4652 145.337 12.9626 146.232 13.1275L148.553 13.625C151.769 14.2874 153.392 16.2441 153.392 18.6297C153.392 21.2819 151.337 24 147.061 24C142.156 24 140.465 20.8175 140.267 18.9623" fill="white"/>
<path d="M0.886719 17.6388H6.76236V11.7632H0.886719V17.6388Z" fill="#482AAA"/>
<path d="M0.886719 23.5131H6.76236V17.6388H0.886719V23.5131Z" fill="#5B35D4"/>
<path d="M0.886719 5.88882H6.76236V0.0131836H0.886719V5.88882Z" fill="#231454"/>
<path d="M0.886719 11.7632H6.76236V5.88882H0.886719V11.7632Z" fill="#371F80"/>
<path d="M11.7393 0.0567265C11.5532 0.0237395 11.3645 0.0131836 11.1759 0.0131836H6.76221V5.8875H12.6365V0.291593C12.3463 0.189994 12.0467 0.110825 11.7393 0.0567265Z" fill="#120A2B"/>
<path d="M16.5986 5.88751C16.5986 5.87959 16.6 5.87035 16.6 5.86111C16.6 3.28153 14.9427 1.09384 12.6362 0.291595V5.88751" fill="black"/>
<path d="M16.5986 5.88754H12.6362V11.4307C14.9348 10.631 16.5868 8.45521 16.5986 5.88754Z" fill="#120A2B"/>
<path d="M6.76221 5.88882V11.7632L10.6982 11.7394C11.5334 11.7394 12.0283 11.6431 12.6365 11.4306V5.88882" fill="#231454"/>
<path d="M11.8924 11.7631H11.9029C11.7247 11.7473 11.5453 11.7355 11.3632 11.7355C11.1811 11.7355 6.76221 11.7631 6.76221 11.7631V17.6388H12.6365V11.8806C12.3937 11.8265 12.1457 11.7869 11.8924 11.7631Z" fill="#371F80"/>
<path d="M12.6362 11.8806V17.6388H17.2544C17.2544 14.8204 15.2778 12.4664 12.6362 11.8806Z" fill="#CACAD1"/>
<path d="M6.76221 17.6388V23.5131H11.8924C12.1457 23.4907 12.3937 23.4511 12.6365 23.3956V17.6388" fill="#482AAA"/>
<path d="M12.6362 23.397C15.2778 22.8098 17.2544 20.4571 17.2544 17.6388H12.6362" fill="#371F80"/>
<path d="M0.886719 17.6388H6.76236V11.7632H0.886719V17.6388Z" fill="#565367"/>
<path d="M0.886719 23.5131H6.76236V17.6388H0.886719V23.5131Z" fill="#3F3B51"/>
<path d="M0.886719 5.88882H6.76236V0.0131836H0.886719V5.88882Z" fill="#CACAD1"/>
<path d="M0.886719 11.7632H6.76236V5.88882H0.886719V11.7632Z" fill="#848291"/>
<path d="M11.7393 0.0567265C11.5532 0.0237395 11.3645 0.0131836 11.1759 0.0131836H6.76221V5.8875H12.6365V0.291593C12.3463 0.189994 12.0467 0.110825 11.7393 0.0567265Z" fill="#E2E2E6"/>
<path d="M16.5986 5.88751C16.5986 5.87959 16.6 5.87035 16.6 5.86111C16.6 3.28153 14.9427 1.09384 12.6362 0.291595V5.88751" fill="#F9FAFB"/>
<path d="M16.5986 5.88754H12.6362V11.4307C14.9348 10.631 16.5868 8.45521 16.5986 5.88754Z" fill="#E2E2E6"/>
<path d="M6.76221 5.88882V11.7632L10.6982 11.7394C11.5334 11.7394 12.0283 11.6431 12.6365 11.4306V5.88882" fill="#CACAD1"/>
<path d="M11.8924 11.7632H11.9029C11.7247 11.7473 11.5453 11.7354 11.3632 11.7354C11.1811 11.7354 6.76221 11.7632 6.76221 11.7632V17.6387H12.6365V11.8805C12.3937 11.8265 12.1457 11.7869 11.8924 11.7632Z" fill="#848291"/>
<path d="M6.76221 17.6388V23.5131H11.8924C12.1457 23.4907 12.3937 23.4511 12.6365 23.3956V17.6388" fill="#565367"/>
<path d="M12.6362 23.397C15.2778 22.8098 17.2544 20.4571 17.2544 17.6388H12.6362" fill="#848291"/>
</g>
<defs>
<clipPath id="clip0_3563_4816">
<rect width="153" height="24" fill="white" transform="translate(0.886719)"/>
</clipPath>
</defs>
</svg>
