<svg xmlns="http://www.w3.org/2000/svg" width="16" height="20" viewBox="0 0 16 20">
    <g fill="none" fill-rule="evenodd">
        <g fill="#FFF" fill-rule="nonzero">
            <g>
                <path d="M162.15 37.598c-.005.33-.156 3.505-4.154 3.505-3.937 0-4.087-3.175-4.089-3.502V26.367h1.183v10.446c0 1.239.499 3.126 2.906 3.126 2.457 0 2.97-1.887 2.97-3.126V25h-1.33v11.814c.054.468-.097.937-.415 1.278-.317.34-.766.517-1.224.48-.45.03-.89-.152-1.195-.493-.306-.341-.445-.806-.38-1.265V25h-3.844v12.889c0 .046.061 4.586 5.422 4.586 5.422 0 5.485-4.54 5.485-4.586V26.367h1.183v11.995c0 .21-.253 5.268-6.67 5.268-6.415 0-6.667-5.059-6.668-5.266V25H150v13.508c0 .065.227 6.492 8 6.492 7.772 0 8-6.427 8-6.492V25h-3.847l-.004 12.598z" transform="translate(-150 -755) translate(0 730)"/>
            </g>
        </g>
    </g>
</svg>
