<svg width="154" height="36" viewBox="0 0 154 36" fill="none" xmlns="http://www.w3.org/2000/svg">
<g clip-path="url(#clip0_3563_4850)">
<path fill-rule="evenodd" clip-rule="evenodd" d="M36.5238 18.1188C36.5238 21.3722 35.6576 24.551 33.9748 27.3326L31.1039 23.2845C32.1433 20.801 32.4156 18.0443 31.8713 15.3871C31.8463 15.3126 31.8463 15.2132 31.8216 15.1387V15.1139C31.7969 15.0146 31.7722 14.9401 31.7475 14.8407C31.7228 14.7414 31.7228 14.6917 31.6979 14.6172C31.6484 14.4434 31.599 14.2944 31.5494 14.1206C31.5494 14.0709 31.5247 14.0212 31.5 13.9716C31.5 13.9467 31.4752 13.9219 31.4752 13.8971C31.4258 13.7481 31.3762 13.5991 31.3268 13.4501C31.302 13.3506 31.2524 13.2513 31.203 13.152C31.1536 13.0526 31.1289 12.9533 31.0792 12.854C31.0298 12.7546 31.0051 12.6553 30.9554 12.556C30.8566 12.3573 30.7822 12.1586 30.6834 11.9599C30.6337 11.8854 30.609 11.7861 30.5596 11.7116L30.5349 11.6868C30.5349 11.6868 30.5349 11.6868 30.5349 11.6619C30.4853 11.5626 30.4358 11.4881 30.3864 11.3888C30.3368 11.2894 30.2874 11.1901 30.213 11.1156C30.0895 10.9169 29.9657 10.7182 29.8419 10.5196C29.1242 9.45167 28.258 8.50797 27.2929 7.71327L27.0701 7.51458L26.7731 7.29107C26.699 7.21657 26.5999 7.16691 26.5008 7.0924C26.402 7.0179 26.3276 6.96824 26.2535 6.91855C26.1545 6.84405 26.0554 6.79439 25.9566 6.71989C25.8575 6.64538 25.8081 6.62054 25.7584 6.59572C25.709 6.57088 25.6349 6.52122 25.5605 6.47153C22.0711 4.41028 17.8639 4.03777 14.0776 5.42849C13.0877 5.801 11.0088 7.04274 10.9346 7.0924L8.36084 3.5659L8.7073 3.34239C9.57348 2.74637 10.4891 2.22484 11.4296 1.80266C16.3791 -0.432439 22.0463 -0.258597 26.8722 2.22484C27.0454 2.29935 27.2186 2.39869 27.3671 2.49804C27.4414 2.5477 27.5402 2.59736 27.6146 2.64705L27.8372 2.79605C27.9116 2.84571 27.9857 2.89537 28.0601 2.94506C28.2333 3.04438 28.3817 3.14373 28.5549 3.24307L28.7531 3.36724C28.8519 3.4169 28.9263 3.4914 29.0251 3.5659C29.1242 3.64041 29.2232 3.69009 29.2974 3.7646L29.4459 3.88876L29.6934 4.08743C29.916 4.26128 30.1389 4.45994 30.3615 4.63379C30.5843 4.80764 30.7822 5.00631 31.0051 5.20498L31.302 5.50299C31.4009 5.60234 31.5 5.70168 31.599 5.801C31.7969 5.9997 31.9701 6.19836 32.1433 6.39703L32.3662 6.67022C32.4403 6.76955 32.5146 6.84405 32.5888 6.9434C32.6631 7.04274 32.7125 7.0924 32.7622 7.16691C32.8116 7.24141 32.8857 7.31591 32.9354 7.39042L33.1086 7.61393C33.1827 7.71327 33.2571 7.81259 33.3065 7.91194C33.3561 8.01128 33.455 8.11061 33.5046 8.20995C33.5293 8.25961 33.5788 8.3093 33.6035 8.35896C33.6282 8.40862 33.6778 8.4583 33.7025 8.50797L33.851 8.75632C33.9251 8.88048 33.9995 9.00465 34.0736 9.12883L34.2221 9.40201L34.3706 9.67518C34.3706 9.67518 34.3706 9.70002 34.3955 9.70002L34.4203 9.72486C34.4203 9.72486 34.4203 9.74968 34.445 9.74968C34.445 9.74968 34.445 9.77452 34.4697 9.77452L34.6182 10.0477L34.6429 10.0725C34.6925 10.1719 34.7419 10.2712 34.7914 10.3954C34.841 10.5195 34.8904 10.6189 34.9398 10.7431L35.0636 11.0411L35.1874 11.3142L35.2865 11.5626C35.3359 11.6868 35.3853 11.7861 35.41 11.8854C35.4349 11.9103 35.435 11.9351 35.435 11.9848C35.4844 12.1089 35.5338 12.2331 35.5585 12.3573C35.6576 12.6305 35.7319 12.9036 35.806 13.2016C35.8308 13.3258 35.8804 13.4748 35.9051 13.5991V13.6486C35.9792 13.9467 36.0536 14.2199 36.103 14.5179C36.1277 14.6669 36.1524 14.8159 36.1774 14.9401C36.1774 14.9649 36.1774 14.9897 36.1774 14.9897C36.2021 15.1139 36.2268 15.2381 36.2515 15.3622L36.3009 15.7844V15.8092C36.3259 15.9582 36.3259 16.1073 36.3506 16.2563C36.3753 16.5295 36.4 16.8027 36.4247 17.1007C36.5238 17.4483 36.5238 17.7712 36.5238 18.1188Z" fill="#0059FF"/>
<path d="M31.7222 30.3125C30.9056 31.1817 30.0147 31.9764 29.0494 32.6718C26.055 34.8323 22.4172 35.9995 18.705 35.9995C8.85548 35.9995 0.886719 28.0028 0.886719 18.1189C0.886719 14.791 1.80238 11.5377 3.53474 8.73139C3.60898 8.60723 3.70795 8.48306 3.7822 8.33406L4.02966 7.96154C4.32663 7.51452 4.67311 7.09232 5.0196 6.67014L5.24232 6.42179C5.26706 6.37213 5.31657 6.34729 5.3413 6.29763C5.41554 6.19828 5.48979 6.12378 5.58876 6.02446L5.68776 5.92511L8.26153 9.55093L8.28626 9.60061C8.23678 9.67512 8.16253 9.74962 8.11305 9.82412C8.06356 9.89863 7.98929 9.97313 7.93981 10.0476C3.48522 16.0079 4.69784 24.4516 10.6373 28.8968C15.3146 32.4234 21.749 32.498 26.5004 29.0708L25.0156 26.9848L22.4914 23.4086C23.5061 22.6636 24.298 21.6701 24.7683 20.503C26.0799 17.1503 24.4465 13.3754 21.1055 12.0592C20.3384 11.7612 19.5464 11.6122 18.7297 11.6122H18.4576C17.1955 11.6619 16.0076 12.084 14.9682 12.8291L12.3944 9.2281C13.3843 8.53273 14.4485 7.98636 15.6115 7.63869C16.6015 7.34067 17.6656 7.19167 18.705 7.19167C19.0267 7.19167 19.3485 7.21651 19.6702 7.24133C25.6592 7.76285 30.0641 13.0526 29.5445 19.0625C29.3713 20.9996 28.6783 22.8622 27.5646 24.4516L29.1238 26.6369L31.7222 30.3125Z" fill="#FAFAFA"/>
<path fill-rule="evenodd" clip-rule="evenodd" d="M22.4669 23.4089C19.5961 25.5447 15.5376 24.9487 13.4092 22.0679C11.2809 19.187 11.8749 15.1143 14.7456 12.9785C14.8199 12.9288 14.8941 12.8792 14.9436 12.8295L22.4669 23.4089Z" fill="#0059FF"/>
<path d="M52.9309 19.8076L55.3314 21.5709C53.7722 23.657 51.941 24.5759 49.9116 24.5759C46.3479 24.6505 43.3782 21.7944 43.3288 18.2183C43.2793 14.6421 46.1006 11.662 49.6642 11.6123C49.7384 11.6123 49.8374 11.6123 49.9116 11.6123C51.9657 11.6123 53.8466 12.5808 55.3808 14.6669L52.9556 16.455C51.9904 15.1387 50.9759 14.6172 49.9116 14.6172C48.0062 14.6172 46.447 16.1818 46.447 18.0941C46.447 20.0064 48.0062 21.5709 49.9116 21.5709C51.0006 21.5709 51.9657 21.099 52.9309 19.8076Z" fill="white"/>
<path d="M59.6626 16.8275C60.4544 16.4302 61.3454 16.2315 62.2363 16.2315L61.5682 18.9881C60.5288 18.9881 59.6873 19.5096 59.6873 20.1554V24.3773H56.9404V16.3805H59.6873V16.8275H59.6626Z" fill="white"/>
<path d="M64.4627 28.1024L66.2692 23.657L63.3242 16.3805H66.096L67.655 20.1553L69.1646 16.3805H71.9364L67.2096 28.1024H64.4627Z" fill="white"/>
<path d="M81.5393 20.379C81.5393 21.4965 81.0939 22.5645 80.3267 23.3343C79.5347 24.104 78.4953 24.5262 77.3817 24.5262C76.8866 24.5015 76.3917 24.3276 75.9957 24.0296V28.1024H73.2241V16.3807H75.971V16.7532C76.367 16.4303 76.8619 16.2565 77.357 16.2565C78.4458 16.2317 79.51 16.6538 80.3018 17.4485C81.0939 18.2184 81.5393 19.2863 81.5393 20.379ZM78.7922 20.379C78.7922 19.6091 78.1489 18.9883 77.3817 18.9883C76.6146 18.9883 75.9957 19.6339 75.9957 20.4039C75.9957 21.1737 76.6393 21.7945 77.3817 21.7945C78.1736 21.7945 78.7922 21.1737 78.7922 20.379Z" fill="white"/>
<path d="M83.3461 21.4719V18.9635H82.3809V16.3808H83.3461V13.8725H86.093V16.3808H88.073V18.9635H86.093V21.4471C86.0683 21.5712 86.1674 21.6706 86.2911 21.6954H87.9739L88.6916 24.4023H86.2662C84.6578 24.4023 83.3708 23.1109 83.3461 21.4967C83.3461 21.4967 83.3461 21.4967 83.3461 21.4719Z" fill="white"/>
<path d="M97.8725 20.3789C97.8725 21.4964 97.427 22.5643 96.6597 23.3341C95.8925 24.104 94.8284 24.5511 93.7396 24.5511C91.4627 24.6006 89.5573 22.7878 89.4829 20.503C89.4335 18.2183 91.24 16.306 93.5168 16.2315C93.5911 16.2315 93.6405 16.2315 93.7149 16.2315C94.8037 16.2315 95.8431 16.6537 96.635 17.4235C97.427 18.2183 97.8476 19.2861 97.8725 20.3789ZM95.1007 20.3789C95.076 19.6089 94.4324 19.0129 93.6652 19.0378C92.9475 19.0626 92.3785 19.6586 92.3289 20.3789C92.3042 21.1487 92.8981 21.7944 93.6652 21.8192C94.4324 21.844 95.076 21.248 95.1007 20.4782C95.1007 20.4782 95.1007 20.4285 95.1007 20.3789Z" fill="white"/>
<path d="M107.573 20.3791C107.573 21.4966 107.128 22.5646 106.361 23.3344C105.569 24.1043 104.529 24.5265 103.441 24.5265C102.945 24.5017 102.451 24.3277 102.054 24.0296V28.1026H99.3076V16.3808H102.054V16.7534C102.451 16.4304 102.945 16.2566 103.441 16.2566C104.529 16.2566 105.593 16.6788 106.361 17.4487C107.128 18.2185 107.573 19.2865 107.573 20.3791ZM104.826 20.3791C104.826 19.6093 104.183 18.9885 103.416 18.9885C102.648 18.9885 102.03 19.6341 102.03 20.404C102.03 21.1738 102.673 21.7947 103.441 21.7947C104.208 21.7947 104.826 21.1738 104.826 20.3791Z" fill="white"/>
<path d="M117.003 20.3789C117.003 21.4964 116.557 22.5643 115.79 23.3341C115.023 24.104 113.959 24.5511 112.87 24.5511C110.593 24.6006 108.687 22.7878 108.613 20.503C108.564 18.2183 110.37 16.306 112.647 16.2315C112.721 16.2315 112.771 16.2315 112.845 16.2315C113.934 16.2315 114.973 16.6537 115.765 17.4235C116.557 18.2183 117.003 19.2861 117.003 20.3789ZM114.256 20.3789C114.231 19.6089 113.587 19.0129 112.82 19.0378C112.103 19.0626 111.533 19.6586 111.484 20.3789C111.459 21.1487 112.053 21.7944 112.82 21.8192C113.587 21.844 114.231 21.248 114.256 20.4782C114.256 20.4782 114.256 20.4285 114.256 20.3789Z" fill="white"/>
<path d="M118.586 24.4023V11.5629H121.358V24.4023H118.586Z" fill="white"/>
<path d="M123.808 13.7235C123.808 12.8543 124.501 12.1589 125.367 12.1589C126.233 12.1589 126.95 12.8543 126.95 13.7235C126.95 14.5928 126.258 15.3129 125.367 15.3129C124.501 15.2881 123.808 14.5928 123.808 13.7235ZM123.98 16.3808H126.728V24.4023H123.98V16.3808Z" fill="white"/>
<path d="M129.649 21.4719V18.9635H128.685V16.3808H129.649V13.8725H132.422V16.3808H134.401V18.9635H132.422V21.4471C132.397 21.5712 132.495 21.6706 132.619 21.6954H134.302L135.02 24.4023H132.595C130.986 24.4271 129.674 23.1357 129.674 21.5216C129.649 21.4967 129.649 21.4967 129.649 21.4719Z" fill="white"/>
<path d="M141.379 16.753V16.3805H144.151V24.402H141.379V24.0296C140.984 24.3525 140.513 24.5263 139.993 24.5263C137.716 24.5263 135.86 22.6636 135.86 20.3789C135.86 18.0941 137.716 16.2315 139.993 16.2315C140.488 16.2315 140.984 16.4053 141.379 16.753ZM141.379 20.3789C141.354 19.6089 140.735 18.9881 139.968 19.0129C139.202 19.0378 138.583 19.6586 138.607 20.4285C138.632 21.1984 139.251 21.7944 139.993 21.7944C140.76 21.7944 141.379 21.1735 141.379 20.3789Z" fill="white"/>
<path d="M152.664 17.3988C153.382 18.1191 153.778 19.1124 153.778 20.1555V24.402H151.031V20.1555C151.031 19.5346 150.536 19.0131 149.918 19.0131C149.299 19.0131 148.779 19.5098 148.779 20.1307V24.3772H146.007V16.3807H148.779V16.7532C148.927 16.4303 149.521 16.2565 149.918 16.2565C150.932 16.2317 151.922 16.6538 152.664 17.3988Z" fill="white"/>
</g>
<defs>
<clipPath id="clip0_3563_4850">
<rect width="153" height="36" fill="white" transform="translate(0.886719)"/>
</clipPath>
</defs>
</svg>
