<svg xmlns="http://www.w3.org/2000/svg" width="68.1" height="23.8" fill="#092e20"><path d="M8 0h3.7v17.2a24.6 24.6.0 0 1-4.8.5c-4.5.0-7-2.1-7-6C0 8 2.5 5.5 6.4 5.5a6 6 0 0 1 1.6.2zm0 8.7a3.7 3.7.0 0 0-1.3-.2c-2 0-3 1.2-3 3.2s1 3.1 3 3.1a8.7 8.7.0 0 0 1.3-.1zm9.7-2.9v8.6c0 3-.2 4.4-1 5.6-.7 1.3-1.7 2.2-3 2.8l-3.5-1.6c1.3-.4 2.3-1.3 3-2.5.5-1.1.7-2.3.7-5.5V5.8zM14 0h3.7v3.8H14zm6 6.6c1.5-.7 3.2-1.1 5-1.1 2 0 3.2.5 3.7 1.5.4.9.5 1.9.4 2.8v7.6a41 41 0 0 1-5.3.4c-3 0-4.5-1.1-4.5-3.5.0-2.6 2-3.8 6.4-4.2v-.8c0-.7-.3-.9-1.3-.9-1.5.0-3 .4-4.4 1.1V6.6zm5.8 5.9c-2.5.2-3.3.6-3.3 1.6.0.7.5 1.1 1.5 1.1.6.0 1.2-.1 1.8-.2zm5-6.2c2-.5 4-.8 6-.8 1.5-.1 3 .3 4 1.3.8.8 1 1.7 1 3.5v7.3H38v-7.2c0-1.4-.5-2-1.8-2-.6.0-1.2.1-1.7.3v8.9h-3.7zm12.5 13.3c1.2.7 2.6 1 4 1 2.4.0 3.5-1 3.5-3.4v-.1c-.8.4-1.6.5-2.4.5-3.3.0-5.3-2.2-5.3-5.6.0-4.2 3-6.6 8.5-6.6 1.6.0 3.3.2 5 .5L55 8.7c-1-.2-.1.0-.8-.1l.1 6.6c0 3.2-.3 4.7-1 5.9-1.2 1.8-3.2 2.7-6 2.7-1.4.0-2.7-.2-4-.7v-3.4zm7.4-11.1h-.4c-.8.0-1.5.2-2.2.5-1 .6-1.5 1.6-1.4 2.7.0 1.9 1 2.9 2.6 2.9.5.0 1-.1 1.4-.2v-6zm11.3-3c3.7.0 6 2.3 6 6.1.0 3.9-2.4 6.3-6 6.3-3.7.0-6-2.3-6-6.1.0-3.9 2.4-6.4 6.2-6.4zM62 15c1.4.0 2.3-1.2 2.3-3.2s-.8-3.2-2.2-3.2c-1.5.0-2.3 1.2-2.3 3.2S60.5 15 62 15z"/></svg>