<svg xmlns="http://www.w3.org/2000/svg" width="36.5" height="57"><path fill="#f05133" d="M34.6 16l-14.9-15a2.2 2.2.0 0 0-3.1.0l-3.1 3 3.9 4a2.6 2.6.0 0 1 3.3 3.3l3.8 3.8a2.6 2.6.0 1 1-1.6 1.5l-3.5-3.5v9.3a2.6 2.6.0 1 1-2.1-.1V13a2.6 2.6.0 0 1-.9-.6 2.6 2.6.0 0 1-.6-2.9L12 6 1.9 16a2.2 2.2.0 0 0 0 3.1l14.9 15a2.2 2.2.0 0 0 3.1.0l14.8-14.8a2.2 2.2.0 0 0 0-3.1"/><path d="M11.8 44.2a1.5 1.5.0 0 0-1.6 1.6c0 .8.5 1.4 1.6 1.4a1.4 1.4.0 0 0 1.6-1.5 1.4 1.4.0 0 0-1.6-1.5zM9.9 52a1.5 1.5.0 0 0-.4.9c0 .7.9 1 2.1 1 1 0 2.3-.1 2.3-1 0-.5-.6-.6-1.5-.6L9.9 52zm5.1-7.8a2.7 2.7.0 0 1 .6 1.7c0 2-1.5 3-3.6 3a5.4 5.4.0 0 1-1.4-.2l-.6 1 1.7.1c3 .2 4.7.3 4.7 2.5.0 2-1.7 3-4.7 3-3.1.0-4.3-.8-4.3-2a2.2 2.2.0 0 1 .9-1.7 1.1 1.1.0 0 1-.8-1.1 1.5 1.5.0 0 1 .5-1l1.1-1a2.7 2.7.0 0 1-1.5-2.6c0-2 1.3-3.3 3.9-3.3a5.9 5.9.0 0 1 1.6.2h3.3V44h-1.6m4.8-3a1.4 1.4.0 0 1-1.5-1.5 1.5 1.5.0 0 1 3.1.0 1.4 1.4.0 0 1-1.6 1.5zm-2.2 10.3V50h.9c.2.0.3-.1.3-.3v-5c0-.2-.1-.3-.2-.4l-.9-.3.2-1.4h3.5v7c0 .3.0.3.3.3h.9v1.4h-4.9m11.5-.6a6.8 6.8.0 0 1-2.8.7c-2 0-2.8-.8-2.8-2.8V44c0-.1.0-.2-.1-.2h-1.2v-1.5c1.5-.2 2.1-1 2.3-2.8H26V42c0 .1.0.2.1.2h2.4V44H26v4c0 1 .2 1.4 1.2 1.4a4.1 4.1.0 0 0 1.4-.3l.5 1.5" fill="#413000"/></svg>