<svg width="150" height="32" viewBox="0 0 150 32" fill="none" xmlns="http://www.w3.org/2000/svg">
<path d="M149.886 14.4763V11.8402H146.613V7.74212L146.503 7.77601L143.428 8.71667L143.368 8.73516V11.8402H138.515V10.1106C138.515 9.30517 138.695 8.68876 139.05 8.2777C139.402 7.87153 139.907 7.66509 140.55 7.66509C141.012 7.66509 141.491 7.77401 141.972 7.98879L142.093 8.04262V5.26649L142.036 5.24565C141.587 5.08416 140.975 5.00278 140.218 5.00278C139.263 5.00278 138.396 5.21048 137.639 5.62227C136.882 6.03461 136.287 6.62329 135.87 7.37183C135.454 8.11947 135.243 8.98292 135.243 9.93844V11.8402H132.963V14.4763H135.243V25.5813H138.515V14.4763H143.368V21.5334C143.368 24.4399 144.739 25.9128 147.442 25.9128C147.887 25.9128 148.354 25.8606 148.832 25.7586C149.318 25.654 149.648 25.5494 149.843 25.4378L149.886 25.4124V22.7519L149.753 22.84C149.576 22.9585 149.355 23.0552 149.095 23.1269C148.835 23.2001 148.617 23.2369 148.449 23.2369C147.816 23.2369 147.347 23.0662 147.056 22.7295C146.762 22.3896 146.613 21.7951 146.613 20.9638V14.4763H149.886ZM125.656 23.2372C124.469 23.2372 123.532 22.8433 122.872 22.0676C122.208 21.2879 121.872 20.1763 121.872 18.7641C121.872 17.307 122.208 16.1666 122.873 15.3731C123.533 14.5849 124.46 14.1849 125.63 14.1849C126.764 14.1849 127.667 14.567 128.314 15.3211C128.964 16.0791 129.294 17.2104 129.294 18.6845C129.294 20.1767 128.984 21.3229 128.372 22.0896C127.765 22.8506 126.851 23.2372 125.656 23.2372ZM125.802 11.5092C123.536 11.5092 121.736 12.1731 120.453 13.4826C119.171 14.7923 118.521 16.6045 118.521 18.8697C118.521 21.0211 119.155 22.7516 120.407 24.0124C121.659 25.2737 123.363 25.9126 125.47 25.9126C127.667 25.9126 129.431 25.2394 130.713 23.9118C131.996 22.5854 132.646 20.7904 132.646 18.5781C132.646 16.393 132.036 14.6496 130.833 13.3972C129.629 12.1443 127.936 11.5092 125.802 11.5092ZM113.245 11.5091C111.704 11.5091 110.429 11.9033 109.455 12.6807C108.475 13.4626 107.978 14.4882 107.978 15.7292C107.978 16.3743 108.085 16.9474 108.297 17.4333C108.509 17.921 108.838 18.3502 109.274 18.7105C109.708 19.0679 110.377 19.4424 111.263 19.8232C112.008 20.1299 112.564 20.3894 112.917 20.5938C113.262 20.7941 113.508 20.9957 113.646 21.1918C113.78 21.3837 113.848 21.6463 113.848 21.9708C113.848 22.8938 113.157 23.343 111.735 23.343C111.207 23.343 110.605 23.233 109.946 23.0156C109.286 22.7987 108.67 22.4868 108.114 22.0868L107.978 21.9894V25.1397L108.028 25.1629C108.491 25.3765 109.075 25.5567 109.763 25.6986C110.449 25.8405 111.073 25.9128 111.615 25.9128C113.288 25.9128 114.635 25.5166 115.617 24.7348C116.606 23.9474 117.108 22.8976 117.108 21.6135C117.108 20.6874 116.838 19.893 116.306 19.2524C115.778 18.617 114.861 18.0338 113.582 17.5181C112.563 17.1092 111.911 16.7698 111.642 16.5093C111.382 16.2576 111.25 15.9016 111.25 15.4508C111.25 15.0512 111.413 14.7311 111.747 14.4717C112.083 14.2111 112.552 14.0786 113.139 14.0786C113.685 14.0786 114.242 14.1647 114.797 14.3335C115.351 14.5022 115.838 14.7282 116.245 15.0048L116.378 15.0961V12.1078L116.327 12.0857C115.952 11.9249 115.458 11.7873 114.857 11.6757C114.259 11.5651 113.717 11.5091 113.245 11.5091ZM99.4478 23.2372C98.2605 23.2372 97.3239 22.8433 96.6641 22.0676C96.0001 21.2879 95.6642 20.1767 95.6642 18.7641C95.6642 17.307 96.0004 16.1666 96.6649 15.3731C97.3246 14.5849 98.2518 14.1849 99.4215 14.1849C100.556 14.1849 101.459 14.567 102.106 15.3211C102.756 16.0791 103.086 17.2104 103.086 18.6845C103.086 20.1767 102.776 21.3229 102.164 22.0896C101.556 22.8506 100.643 23.2372 99.4478 23.2372ZM99.5939 11.5092C97.3275 11.5092 95.5277 12.1731 94.2453 13.4826C92.963 14.7923 92.3123 16.6045 92.3123 18.8697C92.3123 21.022 92.9474 22.7516 94.1992 24.0124C95.4511 25.2737 97.1546 25.9126 99.2624 25.9126C101.458 25.9126 103.223 25.2394 104.505 23.9118C105.787 22.5854 106.438 20.7904 106.438 18.5781C106.438 16.393 105.828 14.6496 104.624 13.3972C103.42 12.1443 101.728 11.5092 99.5939 11.5092ZM87.3453 14.2198V11.8402H84.113V25.581H87.3453V18.5521C87.3453 17.3568 87.6163 16.375 88.1509 15.6333C88.6789 14.9006 89.3825 14.5292 90.2414 14.5292C90.5325 14.5292 90.8592 14.5772 91.2132 14.6722C91.5635 14.7666 91.8173 14.869 91.967 14.9769L92.1027 15.0753V11.8167L92.0504 11.7942C91.7493 11.6663 91.3236 11.6017 90.7847 11.6017C89.9726 11.6017 89.2456 11.8627 88.6231 12.3766C88.0766 12.8282 87.6815 13.4475 87.3796 14.2198H87.3453ZM78.3248 11.5091C76.8421 11.5091 75.5193 11.8272 74.3942 12.4539C73.2669 13.0821 72.3951 13.9791 71.8019 15.1197C71.2114 16.2576 70.9116 17.5866 70.9116 19.0687C70.9116 20.3669 71.2023 21.5584 71.7769 22.6084C72.3518 23.6601 73.1656 24.483 74.1955 25.0537C75.2241 25.6238 76.4129 25.9128 77.729 25.9128C79.2651 25.9128 80.5765 25.6056 81.6281 25.0001L81.6705 24.9756V22.0144L81.5348 22.1136C81.0585 22.4605 80.5262 22.7374 79.9534 22.937C79.3822 23.1363 78.8613 23.2371 78.4047 23.2371C77.1364 23.2371 76.1184 22.8402 75.3792 22.0579C74.6385 21.2744 74.263 20.1744 74.263 18.7901C74.263 17.397 74.6546 16.2688 75.4265 15.4362C76.1959 14.606 77.216 14.185 78.458 14.185C79.5204 14.185 80.5557 14.5448 81.5351 15.2553L81.6705 15.3537V12.2336L81.6268 12.2089C81.2582 12.0026 80.7556 11.8323 80.1314 11.703C79.5101 11.5742 78.9024 11.5091 78.3248 11.5091ZM68.6855 11.8403H65.4532V25.581H68.6855V11.8403ZM67.1023 5.98661C66.5704 5.98661 66.1064 6.16768 65.7253 6.52654C65.3425 6.88649 65.1482 7.33961 65.1482 7.87428C65.1482 8.40062 65.3401 8.84539 65.7191 9.19574C66.0957 9.545 66.5612 9.72207 67.1023 9.72207C67.6434 9.72207 68.1106 9.545 68.4918 9.19628C68.8754 8.84539 69.0699 8.40062 69.0699 7.87428C69.0699 7.35827 68.8807 6.90969 68.5075 6.54104C68.1349 6.17311 67.662 5.98661 67.1023 5.98661ZM59.0378 10.8265V25.5809H62.3364V6.40739H57.7711L51.9681 20.6489L46.3367 6.40739H41.5854V25.5809H44.6852V10.8251H44.7918L50.7384 25.5809H53.0777L58.9314 10.8265H59.0378Z" fill="white"/>
<path d="M15.2051 15.2054H0V0H15.2051V15.2054Z" fill="#F1511B"/>
<path d="M31.9935 15.2054H16.7886V0H31.9935V15.2054Z" fill="#80CC28"/>
<path d="M15.2048 32.0001H0V16.7947H15.2048V32.0001Z" fill="#00ADEF"/>
<path d="M31.9935 32.0001H16.7886V16.7947H31.9935V32.0001Z" fill="#FBBC09"/>
</svg>
