<svg width="150" height="38" viewBox="0 0 150 38" fill="none" xmlns="http://www.w3.org/2000/svg">
<path d="M91.3773 10.773C88.964 10.773 87.0683 11.2948 85.1717 12.3365C85.1717 6.7759 85.1717 1.73713 85.3449 0L73.7928 2.08435V3.12703L74.9995 3.30064C76.5497 3.64787 77.0694 4.51593 77.4109 6.60228C77.7583 10.773 77.5841 33.0164 77.4109 36.6663C80.5142 37.3618 83.7907 37.8836 87.0673 37.8836C96.205 37.8836 101.722 32.1484 101.722 23.1115C101.722 15.9874 97.2395 10.773 91.3773 10.773ZM87.4118 35.9709C86.7218 35.9709 85.8586 35.9709 85.3429 35.7983C85.1697 33.3657 84.9984 23.1115 85.1697 14.0756C86.2041 13.7274 86.8931 13.5538 87.7563 13.5538C91.5515 13.5538 93.6204 18.0717 93.6204 23.6313C93.6194 30.5849 91.0328 35.9709 87.4118 35.9709ZM30.3443 0.69445H0V2.25796L1.7244 2.43158C3.96453 2.7788 4.82773 4.1687 5.17121 7.47035C5.68993 13.7264 5.51669 25.0233 5.17121 30.4082C4.82673 33.7109 3.96552 35.2754 1.7244 35.447L0 35.7962V37.1861H19.4821V35.7962L17.4133 35.447C15.1721 35.2744 14.3099 33.7109 13.9655 30.4082C13.7922 28.1483 13.62 24.4984 13.62 19.9815L17.7577 20.1551C20.3443 20.1551 21.55 22.2404 22.0678 25.1939H23.6199V12.8594H22.0678C21.549 15.8138 20.3443 17.8981 17.7577 17.8981L13.621 18.0727C13.621 12.1639 13.7932 6.60329 13.9665 3.30164H19.9999C24.6563 3.30164 27.0697 6.25506 28.7931 11.4694L30.5175 10.9476L30.3443 0.69445Z" fill="white"/>
<path d="M40.1719 10.4258C48.7929 10.4258 53.1029 16.3346 53.1029 24.1542C53.1029 31.6266 48.2751 37.8846 39.6541 37.8846C31.0341 37.8846 26.7241 31.9748 26.7241 24.1542C26.7241 16.6819 31.5508 10.4258 40.1719 10.4258ZM39.6541 12.1639C35.8609 12.1639 34.8264 17.3773 34.8264 24.1542C34.8264 30.7575 36.5508 36.1445 39.9996 36.1445C43.9622 36.1445 44.9986 30.9311 44.9986 24.1542C44.9986 17.5509 43.2762 12.1639 39.6541 12.1639ZM103.962 24.3288C103.962 17.2037 108.444 10.4258 117.237 10.4258C124.476 10.4258 127.926 15.8138 127.926 22.9379H111.892C111.719 29.3676 114.822 34.0602 121.03 34.0602C123.788 34.0602 125.167 33.3667 126.893 32.1494L127.581 33.0175C125.856 35.4501 122.064 37.8846 117.237 37.8846C109.478 37.8836 103.962 32.323 103.962 24.3288ZM111.892 21.0272L119.995 20.8526C119.995 17.3773 119.477 12.1639 116.547 12.1639C113.617 12.1639 112.063 17.0291 111.892 21.0272ZM148.446 11.8167C146.377 10.9466 143.619 10.4258 140.516 10.4258C134.138 10.4258 130.17 14.2483 130.17 18.7672C130.17 23.2862 133.098 25.1969 137.241 26.5878C141.55 28.1503 142.758 29.3676 142.758 31.453C142.758 33.5383 141.206 35.4491 138.447 35.4491C135.172 35.4491 132.757 33.5383 130.861 28.3239L129.654 28.6732L129.827 36.3191C131.896 37.1872 135.688 37.8836 138.965 37.8836C145.689 37.8836 150 34.4064 150 29.0204C150 25.3705 148.102 23.2862 143.62 21.547C138.791 19.6363 137.069 18.42 137.069 16.16C137.069 13.9011 138.623 12.3365 140.692 12.3365C143.793 12.3365 145.862 14.2483 147.416 18.9408L148.622 18.5936L148.446 11.8167ZM75.5151 11.1213C72.585 9.38514 67.4118 10.2522 64.654 16.5093L64.8252 10.4268L53.2751 12.6858V13.7285L54.4818 13.9021C56.035 14.0767 56.7229 14.9447 56.8962 17.2047C57.2406 21.3754 57.0684 28.6752 56.8962 32.324C56.7229 34.4074 56.035 35.4501 54.4818 35.6247L53.2751 35.7993V37.1892H69.3085V35.7993L67.2396 35.6247C65.5162 35.4501 64.9985 34.4074 64.8252 32.324C64.4807 29.0214 64.4807 22.4181 64.654 18.2474C65.5152 17.0301 69.3085 15.9884 72.7563 18.2474L75.5151 11.1213Z" fill="white"/>
</svg>
