<svg width="22" height="23" viewBox="0 0 22 23" fill="none" xmlns="http://www.w3.org/2000/svg">
<path fill-rule="evenodd" clip-rule="evenodd" d="M11 2.48149C13.937 2.48149 14.285 2.49249 15.445 2.54549C16.517 2.59549 17.1 2.77349 17.487 2.92449C18.001 3.12449 18.367 3.36249 18.752 3.74749C19.137 4.13249 19.376 4.49849 19.575 5.01249C19.725 5.39949 19.905 5.98249 19.954 7.05449C20.007 8.21449 20.018 8.56249 20.018 11.4995C20.018 14.4365 20.007 14.7845 19.954 15.9445C19.904 17.0165 19.726 17.5995 19.575 17.9875C19.375 18.5005 19.137 18.8675 18.752 19.2515C18.367 19.6365 18.001 19.8755 17.487 20.0745C17.1 20.2245 16.517 20.4045 15.445 20.4535C14.285 20.5065 13.937 20.5175 11 20.5175C8.06298 20.5175 7.71498 20.5065 6.55498 20.4535C5.48298 20.4045 4.89998 20.2255 4.51298 20.0745C3.99898 19.8745 3.63298 19.6365 3.24798 19.2515C2.86298 18.8665 2.62398 18.5005 2.42498 17.9875C2.27498 17.5995 2.09498 17.0175 2.04598 15.9445C1.99298 14.7845 1.98198 14.4365 1.98198 11.4995C1.98198 8.56249 1.99298 8.21449 2.04598 7.05449C2.09498 5.98249 2.27398 5.39949 2.42498 5.01249C2.62498 4.49849 2.86298 4.13249 3.24798 3.74749C3.63298 3.36249 3.99898 3.12349 4.51298 2.92449C4.89998 2.77449 5.48298 2.59449 6.55498 2.54549C7.71498 2.49249 8.06298 2.48149 11 2.48149ZM12.096 0.500488C14.106 0.503488 14.524 0.519488 15.536 0.565488C16.706 0.619488 17.506 0.805488 18.206 1.07749C18.929 1.35749 19.542 1.73449 20.154 2.34549C20.765 2.95749 21.141 3.57049 21.422 4.29449C21.694 4.99449 21.88 5.79349 21.934 6.96449C21.987 8.13749 22 8.51249 22 11.4995C22 14.4865 21.987 14.8615 21.934 16.0345C21.88 17.2055 21.694 18.0045 21.422 18.7045C21.142 19.4285 20.765 20.0415 20.154 20.6535C19.542 21.2645 18.929 21.6405 18.205 21.9225C17.505 22.1935 16.706 22.3795 15.535 22.4325C14.362 22.4865 13.987 22.4995 11 22.4995C8.01298 22.4995 7.63798 22.4865 6.46498 22.4335C5.29398 22.3795 4.49498 22.1935 3.79498 21.9225C3.07098 21.6405 2.45798 21.2645 1.84598 20.6525C1.23498 20.0425 0.858976 19.4285 0.576976 18.7045C0.305976 18.0045 0.119977 17.2055 0.0669765 16.0345C0.0199765 15.0235 0.00397656 14.6055 0.000976562 12.5955V10.4035C0.00397656 8.39349 0.0199761 7.97549 0.0659761 6.96349C0.119976 5.79349 0.305976 4.99349 0.576976 4.29349C0.858976 3.57049 1.23498 2.95749 1.84698 2.34549C2.45698 1.73449 3.07098 1.35849 3.79498 1.07749C4.49498 0.805488 5.29398 0.619488 6.46498 0.565488C7.47598 0.519488 7.89398 0.503488 9.90398 0.500488H12.096ZM10.926 5.84949C7.80398 5.84949 5.27298 8.37949 5.27298 11.5025C5.27298 14.6245 7.80298 17.1555 10.926 17.1555C14.048 17.1555 16.579 14.6245 16.579 11.5025C16.579 8.38049 14.048 5.84949 10.926 5.84949ZM10.926 7.83249C12.952 7.83249 14.596 9.47549 14.596 11.5025C14.596 13.5285 12.952 15.1725 10.926 15.1725C8.89898 15.1725 7.25598 13.5285 7.25598 11.5025C7.25598 9.47549 8.89898 7.83249 10.926 7.83249Z" fill="white"/>
<path d="M15.4429 5.5885C15.4429 4.8645 16.0299 4.2785 16.7529 4.2785C17.4759 4.2785 18.0629 4.8645 18.0629 5.5875C18.0629 6.3105 17.4759 6.8975 16.7529 6.8975C16.0299 6.8975 15.4429 6.3105 15.4429 5.5885Z" fill="white"/>
</svg>
