<svg width="35" height="34" viewBox="0 0 35 34" fill="none" xmlns="http://www.w3.org/2000/svg">
<g clip-path="url(#clip0_2623_1451)">
<path d="M17.777 9.66357C16.3028 9.66357 14.8617 10.1007 13.6359 10.9198C12.4102 11.7388 11.4548 12.9029 10.8906 14.2649C10.3265 15.6269 10.1789 17.1256 10.4665 18.5715C10.7541 20.0174 11.464 21.3455 12.5064 22.3879C13.5488 23.4304 14.877 24.1403 16.3229 24.4279C17.7687 24.7155 19.2674 24.5679 20.6294 24.0037C21.9914 23.4396 23.1556 22.4842 23.9746 21.2584C24.7936 20.0327 25.2308 18.5915 25.2308 17.1173C25.2308 15.1405 24.4455 13.2446 23.0476 11.8467C21.6498 10.4489 19.7539 9.66357 17.777 9.66357Z" fill="#478AFF" stroke="black"/>
<path d="M28.4801 10.3262C30.3555 10.3262 31.8758 8.80594 31.8758 6.93057C31.8758 5.0552 30.3555 3.53491 28.4801 3.53491C26.6048 3.53491 25.0845 5.0552 25.0845 6.93057C25.0845 8.80594 26.6048 10.3262 28.4801 10.3262Z" fill="#478AFF" stroke="black"/>
<path d="M32.6605 10.3423L32.5178 10.0312L32.2957 10.2898C31.7391 10.9216 31.0352 11.4062 30.2464 11.7008L30.0243 11.7802L30.1131 12.0024C31.3125 14.886 31.4646 18.0984 30.543 21.0824C29.6213 24.0663 27.6842 26.6335 25.0677 28.3385C22.4511 30.0436 19.3202 30.7788 16.2183 30.4167C13.1163 30.0546 10.2389 28.618 8.08544 26.3562C5.93194 24.0943 4.63819 21.15 4.42865 18.034C4.21911 14.918 5.10701 11.8269 6.93828 9.29715C8.76956 6.76736 11.4287 4.95847 14.4542 4.18432C17.4798 3.41016 20.6809 3.7196 23.5022 5.05893L23.7109 5.15857L23.8025 4.93641C24.1348 4.16312 24.6527 3.48375 25.3104 2.95853L25.5797 2.73637L25.2754 2.57884C22.9597 1.37542 20.387 0.750395 17.7772 0.757134C14.2437 0.757644 10.8053 1.90247 7.97667 4.02028C5.14806 6.13808 3.08135 9.11497 2.08585 12.5054C1.09035 15.8959 1.2196 19.5175 2.45426 22.8284C3.68891 26.1392 5.96257 28.9612 8.93496 30.872C11.9073 32.7828 15.4186 33.6796 18.9432 33.4282C22.4678 33.1768 25.8163 31.7908 28.4874 29.4775C31.1585 27.1642 33.0086 24.0481 33.7609 20.5955C34.5132 17.143 34.1271 13.5396 32.6605 10.3248V10.3423L32.6605 10.3423Z" fill="#478AFF" stroke="black"/>
</g>
<defs>
<clipPath id="clip0_2623_1451">
<rect width="34" height="34" fill="white" transform="translate(0.666504)"/>
</clipPath>
</defs>
</svg>
