<svg width="34" height="34" viewBox="0 0 34 34" fill="none" xmlns="http://www.w3.org/2000/svg">
<g clip-path="url(#clip0_2623_1629)">
<path d="M2.8335 2.83337H31.1668V31.1667H2.8335V2.83337Z" fill="#F7DF1E"/>
<path d="M7.90283 23.9785L10.2609 22.5548C10.7156 23.3615 11.1293 24.0423 12.1224 24.0423C13.0737 24.0423 13.6736 23.6704 13.6736 22.2225V12.3767H16.5693V22.2629C16.5693 25.262 14.8112 26.627 12.2485 26.627C11.3417 26.6761 10.4414 26.4494 9.66606 25.9767C8.89072 25.5041 8.27672 24.8077 7.90496 23.9792" fill="black"/>
<path d="M16.57 23.6683L18.9274 22.3034C19.1896 22.8353 19.5965 23.2825 20.1015 23.5935C20.6065 23.9045 21.1889 24.0667 21.782 24.0615C22.9819 24.0615 23.7469 23.4615 23.7469 22.6342C23.7469 21.6425 22.9606 21.2883 21.6368 20.711L20.9135 20.4008C18.824 19.5118 17.4385 18.3948 17.4385 16.0367C17.4385 13.865 19.0931 12.2117 21.6785 12.2117C22.5162 12.151 23.3531 12.3383 24.085 12.7502C24.8169 13.1622 25.4112 13.7805 25.794 14.528L23.5393 15.9758C23.3913 15.6048 23.134 15.2874 22.8016 15.0658C22.4692 14.8442 22.0773 14.7288 21.6778 14.7348C21.5037 14.7174 21.3279 14.7364 21.1616 14.7907C20.9952 14.845 20.842 14.9333 20.7116 15.0501C20.5813 15.1668 20.4767 15.3094 20.4045 15.4688C20.3323 15.6282 20.2941 15.8009 20.2923 15.9758C20.2923 16.8442 20.83 17.1963 22.071 17.7339L22.7949 18.0442C25.2563 19.0989 26.6418 20.1748 26.6418 22.5945C26.6418 25.2005 24.594 26.6277 21.8436 26.6277C19.1519 26.6277 17.4172 25.3457 16.5693 23.6697" fill="black"/>
</g>
<defs>
<clipPath id="clip0_2623_1629">
<rect width="34" height="34" fill="white"/>
</clipPath>
</defs>
</svg>
