<svg width="67" height="68.613" xmlns="http://www.w3.org/2000/svg"><g><title>background</title><path fill="none" id="canvas_background" d="M-1-1h69v70.613H-1z"/></g><g><title>Layer 1</title><g id="Group_914"><g stroke="null" id="svg_1"><path stroke="null" fill="#326de6" d="m50.593144 12.374384a3.069279 3.069279.0 0 0-1.517278-1.754305l-14.461694-6.916069a2.652594 2.652594.0 0 0-1.186647-.237027 5.004752 5.004752.0 0 0-1.185137.095113l-14.463204 6.970419a2.548423 2.548423.0 0 0-1.422165 1.754305l-3.555412 15.60003a2.992283 2.992283.0 0 0 .520857 2.276671l10.000445 12.376759a3.45275 3.45275.0 0 0 2.181558.996421h15.93519a2.362726 2.362726.0 0 0 2.181558-.996421l10.004974-12.379778a3.238369 3.238369.0 0 0 .569168-2.276671l-3.602213-15.509446z" id="path10349"/><path stroke="null" fill="#fff" d="m48.364784 27.27088v0c-.046802.0-.095113.0-.095113-.046802s-.095113-.046802-.190226-.046802a2.308376 2.308376.0 0 0-.566148-.046802.603892.603892.0 0 1-.283829-.046802h-.046802a9.58376 9.58376.0 0 1-1.612391-.283829.572187.572187.0 0 1-.33214-.33214v0l-.381961-.092093a12.36619 12.36619.0 0 0-.190226-4.172891 12.846284 12.846284.0 0 0-1.660702-3.887552l.283829-.283829v0-.046802a.661261.661261.0 0 1 .141915-.427253 8.492226 8.492226.0 0 1 1.327052-.94811v0l.283829-.141915c.190226-.095113.33214-.190226.520857-.283829.046802-.046802.095113-.046802.141915-.095113s0-.046802.0-.095113v0a.926974.926974.0 0 0 .190226-1.327052.905837.905837.0 0 0-.664281-.33214 1.132297 1.132297.0 0 0-.664281.237027v0l-.046802.046802c-.046802.046802-.095113.095113-.141915.095113a3.067769 3.067769.0 0 0-.378942.427253c-.046802.095113-.141915.141915-.190226.190226v0a6.235181 6.235181.0 0 1-1.185137 1.043223.673339.673339.0 0 1-.283829.095113.285339.285339.0 0 1-.190226-.046802h-.046802l-.378942.237027c-.378942-.378942-.806195-.754865-1.185137-1.138336a12.150299 12.150299.0 0 0-6.159694-2.474446l-.046802-.378942v0 .046802a.652203.652203.0 0 1-.237027-.378942 9.47355 9.47355.0 0 1 .095113-1.612391v-.048311c0-.095113.046802-.190226.046802-.283829.046802-.190226.046802-.378942.095113-.569168v-.283829.0a.937542.937542.0 0 0-.806195-.996421.951129.951129.0 0 0-.806195.33214.936032.936032.0 0 0-.283829.664281v0 .230989a2.379333 2.379333.0 0 0 .095113.569168.603892.603892.0 0 1 .046802.283829v.052841a8.936086 8.936086.0 0 1 .095113 1.612391.652203.652203.0 0 1-.237027.378942v.095113.0l-.046802.378942c-.520857.046802-1.043223.141915-1.612391.237027a11.303341 11.303341.0 0 0-5.832083 3.321404l-.283829-.190226h-.046802c-.046802.0-.095113.046802-.190226.046802a.673339.673339.0 0 1-.283829-.095113 8.742841 8.742841.0 0 1-1.185137-1.090024v0c-.046802-.095113-.141915-.141915-.190226-.190226-.141915-.141915-.237027-.283829-.378942-.427253-.046802-.046802-.095113-.046802-.141915-.095113l-.046802-.046802v0a1.132297 1.132297.0 0 0-.664281-.237027.717121.717121.0 0 0-.664281.33214 1.020577 1.020577.0 0 0 .190226 1.327052v0a.046802.046802.0 0 1 .046802.046802s.095113.095113.141915.095113a5.172332 5.172332.0 0 0 .520857.283829l.283829.141915v0a6.731882 6.731882.0 0 1 1.327052.94811.478584.478584.0 0 1 .141915.427253v-.046802.0l.283829.283829c-.046802.095113-.095113.141915-.141915.237027a11.259559 11.259559.0 0 0-1.663721 7.775104l-.378942.095113v0a.046802.046802.0 0 1-.046802.046802.754865.754865.0 0 1-.33214.33214 8.807759 8.807759.0 0 1-1.612391.283829v0a.603892.603892.0 0 0-.283829.046802c-.190226.0-.378942.046802-.569168.046802-.046802.0-.095113.046802-.190226.046802-.046802.0-.046802.0-.095113.046802v0a.925464.925464.0 0 0-.754865 1.090024v0a.880172.880172.0 0 0 .94811.664281.427253.427253.0 0 0 .237027-.046802v0c.046802.0.046802.0.046802-.046802s.141915.0.190226.0c.190226-.046802.378942-.141915.520857-.190226a.673339.673339.0 0 1 .283829-.095113h.046802a8.454483 8.454483.0 0 1 1.564079-.427253h.046802a.538973.538973.0 0 1 .378942.141915.046802.046802.0 0 1 .046802.046802v0l.427253-.046802a11.445256 11.445256.0 0 0 3.889062 5.548254 7.51996 7.51996.0 0 0 1.28025.852997l-.237027.33214v0a.046802.046802.0 0 0 .046802.046802.561619.561619.0 0 1 .046802.474055 7.781143 7.781143.0 0 1-.754865 1.375363v.05435a.831861.831861.0 0 1-.190226.237027c-.095113.095113-.190226.283829-.33214.474055-.046802.046802-.046802.095113-.095113.141915a.046802.046802.0 0 1-.051331.052841v0a.976795.976795.0 0 0 .378942 1.28025.878662.878662.0 0 0 .33214.095113 1.05681 1.05681.0 0 0 .905837-.569168v0a.046802.046802.0 0 1 .043782-.051331c0-.046802.046802-.095113.095113-.141915.046802-.190226.141915-.33214.190226-.520857l.095113-.283829v0a8.02572 8.02572.0 0 1 .617479-1.468966.736748.736748.0 0 1 .378942-.283829c.046802.0.046802.0.046802-.046802v0l.190226-.378942a11.161427 11.161427.0 0 0 4.126089.754865 9.494686 9.494686.0 0 0 2.566539-.33214 14.167297 14.167297.0 0 0 1.517278-.427253l.190226.33214v0c.046802.0.046802.0.046802.046802a.736748.736748.0 0 1 .378942.283829 8.02572 8.02572.0 0 1 .615969 1.470476v.046802l.095113.283829a1.698445 1.698445.0 0 0 .190226.520857c.046802.046802.046802.095113.095113.141915a.046802.046802.0 0 0 .046802.046802v0a1.05681 1.05681.0 0 0 .905837.569168 1.11569 1.11569.0 0 0 .378942-.095113.794117.794117.0 0 0 .427253-.520857 1.219861 1.219861.0 0 0-.046802-.711082v0a.046802.046802.0 0 0-.046802-.046802c0-.046802-.046802-.095113-.095113-.141915a1.702974 1.702974.0 0 0-.33214-.474055.831861.831861.0 0 0-.190226-.237027v-.095113a5.602604 5.602604.0 0 1-.754865-1.375363.561619.561619.0 0 1 .046802-.474055.046802.046802.0 0 1 .046802-.046802v0l-.141915-.378942a11.720026 11.720026.0 0 0 5.107413-6.448053l.378942.046802v0a.046802.046802.0 0 0 .046802-.046802.538973.538973.0 0 1 .378942-.141915h.046802a7.972879 7.972879.0 0 1 1.517278.427253h.046802a.673339.673339.0 0 0 .283829.095113 2.540874 2.540874.0 0 0 .520857.237027c.046802.0.095113.046802.190226.046802.046802.0.046802.0.095113.046802v0a.427253.427253.0 0 0 .237027.046802 1.031145 1.031145.0 0 0 .94811-.664281 1.117199 1.117199.0 0 0-.849977-.994911zm-13.70381-1.470476-1.28025.615969-1.28025-.615969-.33214-1.375363.905837-1.138336h1.422165l.905837 1.138336-.341199 1.375363zm7.729813-3.082867a9.078001 9.078001.0 0 1 .190226 2.987754l-4.505031-1.28025v0a.776001.776001.0 0 1-.569168-.94811.763923.763923.0 0 1 .190226-.33214l3.556922-3.224781a9.647168 9.647168.0 0 1 1.135316 2.799038l.00151-.00151zm-2.566539-4.551833-3.889062 2.750726a.806195.806195.0 0 1-1.043223-.190226.430273.430273.0 0 1-.141915-.33214l-.283829-4.78886a8.924008 8.924008.0 0 1 5.358028 2.566539v-.006039zm-8.58281-2.415566.94811-.190226-.226459 4.740549v0a.789588.789588.0 0 1-.806195.754865 1.11569 1.11569.0 0 1-.378942-.095113l-3.947941-2.792999a9.41618 9.41618.0 0 1 4.409918-2.415566l.00151-.00151zm-5.785282 4.172891 3.514649 3.131178v0a.754865.754865.0 0 1 .095113 1.090024.534444.534444.0 0 1-.378942.237027l-4.600144 1.327052a9.980819 9.980819.0 0 1 1.375363-5.785282h-.006039zm-.806195 8.013642 4.699786-.806195a.776001.776001.0 0 1 .806195.615969.561619.561619.0 0 1-.046802.474055v0l-1.802616 4.363117a9.328616 9.328616.0 0 1-3.650525-4.646946h-.006039zm10.764368 5.880395a9.595838 9.595838.0 0 1-2.039644.237027 10.628492 10.628492.0 0 1-2.987754-.474055l2.323473-4.227241a.735238.735238.0 0 1 .94811-.190226 2.374804 2.374804.0 0 1 .378942.33214v0l2.28271 4.127599a7.699618 7.699618.0 0 0-.901308.193245l-.004529.00151zm5.785282-4.118541a9.058374 9.058374.0 0 1-2.845839 2.845839l-1.849418-4.45672a.771472.771472.0 0 1 .427253-.905837 1.384422 1.384422.0 0 1 .427253-.095113l4.742059.806195a7.119882 7.119882.0 0 1-.896779 1.804126l-.004529.00151z" id="path10351"/></g></g><path d="m64.202999 60.029a1.733 1.733.0 0 0 .729-.1.387.387.0 0 0 .208-.382.439.439.0 0 0-.278-.382 3.752 3.752.0 0 0-.851-.382 6.891 6.891.0 0 1-.8-.347 2.367 2.367.0 0 1-.608-.417 1.648 1.648.0 0 1-.382-.59 2.183 2.183.0 0 1-.138-.822 1.8 1.8.0 0 1 .695-1.476 2.991 2.991.0 0 1 1.893-.538 5.3 5.3.0 0 1 1.164.122 5.525 5.525.0 0 1 .886.226l-.33 1.476c-.243-.087-.469-.139-.712-.208a3.541 3.541.0 0 0-.851-.087c-.59.0-.886.156-.886.486a.872.872.0 0 0 .035.208.493.493.0 0 0 .156.174 3.37 3.37.0 0 0 .3.174 2.953 2.953.0 0 0 .5.208 6.589 6.589.0 0 1 1.007.452 1.9 1.9.0 0 1 .625.486 1.347 1.347.0 0 1 .33.573 2.644 2.644.0 0 1 .1.729 1.666 1.666.0 0 1-.747 1.493 3.692 3.692.0 0 1-2.084.5 5.273 5.273.0 0 1-1.476-.156c-.278-.069-.538-.156-.8-.243l.315-1.524a6.282 6.282.0 0 0 .972.3c.347.017.677.052 1.025.052m-9.569-1.91a4.162 4.162.0 0 1 .26-1.528 3.288 3.288.0 0 1 .712-1.111 2.744 2.744.0 0 1 1.007-.66 3.1 3.1.0 0 1 1.181-.226 2.916 2.916.0 0 1 2.223.868 3.587 3.587.0 0 1 .816 2.535 2.822 2.822.0 0 1-.017.365c0 .139-.017.243-.017.347h-4.237a1.249 1.249.0 0 0 .538.92 2.242 2.242.0 0 0 1.285.347 6.573 6.573.0 0 0 1.007-.087 3.437 3.437.0 0 0 .816-.26l.26 1.528a2.729 2.729.0 0 1-.4.156 3.373 3.373.0 0 1-.573.122c-.208.035-.417.069-.66.1-.226.017-.469.035-.712.035a4 4 0 0 1-1.563-.26 2.806 2.806.0 0 1-1.737-1.806 5.572 5.572.0 0 1-.191-1.389m4.394-.712a1.489 1.489.0 0 0-.087-.469 1.1 1.1.0 0 0-.208-.4 1.189 1.189.0 0 0-.365-.3 1.253 1.253.0 0 0-1.077.0 1.2 1.2.0 0 0-.382.278 1.253 1.253.0 0 0-.243.417 2.274 2.274.0 0 0-.1.469h2.466m-9.482-4.307 1.876-.3v1.945h2.258v1.563h-2.258v2.327a1.735 1.735.0 0 0 .208.938.92.92.0 0 0 .851.347 3.443 3.443.0 0 0 .608-.052 3.277 3.277.0 0 0 .59-.156l.26 1.459a5.593 5.593.0 0 1-.764.243 5 5 0 0 1-1.025.1 3.142 3.142.0 0 1-1.268-.208 2.049 2.049.0 0 1-.8-.573 2.423 2.423.0 0 1-.434-.9 4.4 4.4.0 0 1-.1-1.164v-5.565m-7.589 5.019a4.163 4.163.0 0 1 .26-1.528 3.288 3.288.0 0 1 .712-1.111 2.744 2.744.0 0 1 1.007-.66 3.1 3.1.0 0 1 1.181-.226 2.916 2.916.0 0 1 2.223.868 3.587 3.587.0 0 1 .816 2.535 2.817 2.817.0 0 1-.017.365 2.568 2.568.0 0 0-.017.347h-4.255a1.249 1.249.0 0 0 .538.92 2.242 2.242.0 0 0 1.285.347 6.573 6.573.0 0 0 1.007-.087 3.846 3.846.0 0 0 .834-.26l.26 1.528a2.729 2.729.0 0 1-.4.156 3.373 3.373.0 0 1-.573.122c-.208.035-.417.069-.66.1-.226.017-.469.035-.712.035a4 4 0 0 1-1.563-.26 2.806 2.806.0 0 1-1.737-1.806 4.326 4.326.0 0 1-.191-1.389m4.394-.712a1.489 1.489.0 0 0-.087-.469 1.1 1.1.0 0 0-.208-.4 1.189 1.189.0 0 0-.365-.3 1.253 1.253.0 0 0-1.077.0 1.133 1.133.0 0 0-.365.278 1.253 1.253.0 0 0-.243.417 2.274 2.274.0 0 0-.1.469h2.449m-11.514-2.431c.4-.1.816-.191 1.233-.26a9.689 9.689.0 0 1 1.58-.122 3.823 3.823.0 0 1 1.389.226 1.983 1.983.0 0 1 .886.608 2.459 2.459.0 0 1 .469.955 4.884 4.884.0 0 1 .139 1.233v3.734h-1.863v-3.482a2.573 2.573.0 0 0-.243-1.285.981.981.0 0 0-.886-.382 3.777 3.777.0 0 0-.434.017 2.631 2.631.0 0 0-.4.035v5.106h-1.875v-6.374m-1.32 1.441c-.174-.035-.365-.087-.59-.122a3.46 3.46.0 0 0-.729-.069 3.968 3.968.0 0 0-.434.035 2.7 2.7.0 0 0-.365.069v5.053h-1.875v-6.285a9.146 9.146.0 0 1 1.181-.33 5.717 5.717.0 0 1 1.528-.161c.122.0.243.017.365.017a1.969 1.969.0 0 1 .434.052c.139.017.278.035.434.069a1.442 1.442.0 0 1 .365.1l-.313 1.563m-11.652 1.7a4.162 4.162.0 0 1 .26-1.528 3.287 3.287.0 0 1 .712-1.111 2.744 2.744.0 0 1 1.007-.66 3.1 3.1.0 0 1 1.181-.226 2.916 2.916.0 0 1 2.223.868 3.57 3.57.0 0 1 .816 2.518 2.819 2.819.0 0 1-.017.365 2.57 2.57.0 0 0-.017.347h-4.255a1.249 1.249.0 0 0 .538.92 2.242 2.242.0 0 0 1.285.347 6.573 6.573.0 0 0 1.007-.087 4.415 4.415.0 0 0 .816-.243l.26 1.528a2.728 2.728.0 0 1-.4.156 3.373 3.373.0 0 1-.573.122c-.208.035-.417.069-.66.1-.226.017-.469.035-.712.035a4 4 0 0 1-1.563-.26 2.806 2.806.0 0 1-1.737-1.806 6.339 6.339.0 0 1-.174-1.389m4.411-.712a1.489 1.489.0 0 0-.087-.469 1.1 1.1.0 0 0-.208-.4 1.189 1.189.0 0 0-.365-.3 1.253 1.253.0 0 0-1.077.0 1.2 1.2.0 0 0-.382.278 1.253 1.253.0 0 0-.243.417 2.275 2.275.0 0 0-.1.469h2.466m-7.45.608c0-1.216-.452-1.806-1.337-1.806a2.158 2.158.0 0 0-.573.069 1.474 1.474.0 0 0-.452.191v3.4c.087.017.208.035.347.052a3.929 3.929.0 0 0 .469.017 1.326 1.326.0 0 0 1.164-.521 2.489 2.489.0 0 0 .382-1.407m1.91.069a4.123 4.123.0 0 1-.243 1.441 2.935 2.935.0 0 1-.66 1.094 3.149 3.149.0 0 1-1.077.712 4.152 4.152.0 0 1-1.459.243c-.226.0-.469-.017-.712-.035s-.486-.052-.729-.069c-.226-.035-.452-.069-.677-.122a2.269 2.269.0 0 1-.573-.156v-9.26l1.876-.3v3.3a4.17 4.17.0 0 1 .66-.208 3.46 3.46.0 0 1 .729-.069 2.838 2.838.0 0 1 1.25.26 2.524 2.524.0 0 1 .9.695 2.97 2.97.0 0 1 .556 1.094 6.126 6.126.0 0 1 .156 1.407m-7.919 3.056a12.057 12.057.0 0 1-2.813.365 3.856 3.856.0 0 1-1.407-.226 2.289 2.289.0 0 1-.886-.625 2.6 2.6.0 0 1-.469-.99 5.021 5.021.0 0 1-.139-1.25v-3.666h1.876v3.457a2.651 2.651.0 0 0 .243 1.3.951.951.0 0 0 .886.4 3.777 3.777.0 0 0 .434-.017 2.485 2.485.0 0 0 .4-.052v-5.088h1.876v6.391m-10.94-3.994c.191-.208.365-.417.573-.625.191-.226.382-.434.573-.643.191-.226.365-.417.521-.608s.313-.365.434-.5h2.227c-.452.5-.886 1.007-1.3 1.476-.434.469-.886.955-1.389 1.441a8.677 8.677.0 0 1 .781.816c.26.313.521.625.781.972.243.33.486.677.695 1.007s.382.643.521.92h-2.159c-.139-.226-.3-.452-.469-.712s-.365-.521-.538-.8a8.582 8.582.0 0 0-.625-.764 4.127 4.127.0 0 0-.625-.608v2.9h-1.873v-9.512l1.876-.3v5.54" id="path3003"/></g></svg>