<svg width="277" height="71" viewBox="0 0 277 71" fill="none" xmlns="http://www.w3.org/2000/svg">
<path d="M79.0178 40.2772C79.0137 40.5205 78.9147 40.7524 78.7423 40.922C78.5699 41.0917 78.3382 41.1854 78.0978 41.1826H61.1544C61.5889 45.425 64.7322 49.3053 69.1789 49.3053C72.22 49.3053 74.4689 48.1412 76.1556 45.6837C76.2341 45.5546 76.3427 45.447 76.472 45.3703C76.6012 45.2936 76.747 45.2502 76.8967 45.2439C77.0083 45.2407 77.1194 45.2606 77.2231 45.3024C77.3269 45.3441 77.4211 45.4069 77.5001 45.4868C77.579 45.5667 77.641 45.6621 77.6823 45.7671C77.7235 45.8722 77.7432 45.9846 77.74 46.0976C77.7406 46.2536 77.6962 46.4065 77.6122 46.5374C75.9 49.5381 72.5011 51.0126 69.1789 51.0126C63.48 51.0126 59.3911 45.8389 59.3911 40.3289C59.3911 34.819 63.4545 29.6453 69.1789 29.6453C74.9033 29.6453 78.9922 34.7672 79.0178 40.2772ZM77.2033 39.4753C76.8456 35.2328 73.6256 31.3526 69.1789 31.3526C64.7322 31.3526 61.5889 35.2328 61.1544 39.4753H77.2033Z" fill="white"/>
<path d="M99.6157 30.059C99.8374 30.0655 100.048 30.1575 100.205 30.3163C100.362 30.475 100.453 30.6883 100.459 30.9127C100.462 31.0257 100.443 31.1381 100.401 31.2431C100.36 31.3481 100.298 31.4435 100.219 31.5235C100.14 31.6034 100.046 31.6661 99.9422 31.7079C99.8384 31.7497 99.7273 31.7695 99.6157 31.7663H95.0668V49.8484C95.0648 50.0742 94.9753 50.2901 94.8176 50.4498C94.6599 50.6094 94.4466 50.7 94.2235 50.702C94.0019 50.6955 93.7911 50.6035 93.6343 50.4448C93.4775 50.2861 93.3866 50.0727 93.3802 49.8484V31.7663H89.0102C88.8986 31.7695 88.7875 31.7497 88.6837 31.7079C88.58 31.6661 88.4857 31.6034 88.4068 31.5235C88.3278 31.4435 88.2658 31.3481 88.2246 31.2431C88.1833 31.1381 88.1637 31.0257 88.1668 30.9127C88.1688 30.6869 88.2583 30.4709 88.4161 30.3113C88.5738 30.1516 88.7871 30.061 89.0102 30.059H93.3802V23.4626C93.3806 23.244 93.458 23.0327 93.5986 22.8668C93.7391 22.7008 93.9335 22.591 94.1468 22.5572C94.2661 22.5411 94.3873 22.5514 94.5023 22.5871C94.6173 22.6229 94.7233 22.6834 94.8131 22.7644C94.9029 22.8455 94.9743 22.9452 95.0225 23.0567C95.0707 23.1683 95.0945 23.2891 95.0924 23.4108V30.059H99.6157Z" fill="white"/>
<path d="M127.343 38.8028V49.7451C127.337 49.9695 127.246 50.1828 127.089 50.3415C126.932 50.5002 126.722 50.5923 126.5 50.5988C126.388 50.602 126.277 50.5821 126.174 50.5403C126.07 50.4986 125.976 50.4358 125.897 50.3559C125.818 50.276 125.756 50.1806 125.714 50.0756C125.673 49.9705 125.654 49.8581 125.657 49.7451V38.8028C125.657 35.1036 123.587 31.4303 119.523 31.4303C114.31 31.4303 112.061 36.0348 112.368 40.7688C112.368 40.8981 112.419 41.4413 112.419 41.519V49.7192C112.418 49.9378 112.341 50.1491 112.2 50.315C112.06 50.481 111.866 50.5908 111.652 50.6246C111.533 50.6407 111.412 50.6305 111.297 50.5947C111.182 50.5589 111.076 50.4984 110.986 50.4174C110.896 50.3363 110.825 50.2366 110.777 50.1251C110.728 50.0135 110.705 49.8927 110.707 49.771V13.788C110.709 13.5622 110.798 13.3463 110.956 13.1866C111.114 13.0269 111.327 12.9364 111.55 12.9343C111.772 12.9408 111.982 13.0329 112.139 13.1916C112.296 13.3503 112.387 13.5636 112.393 13.788V34.1206C113.85 31.482 116.457 29.6971 119.498 29.6971C124.507 29.6971 127.343 34.1206 127.343 38.8028Z" fill="white"/>
<path d="M157.78 40.2772C157.776 40.5205 157.677 40.7524 157.505 40.922C157.332 41.0917 157.1 41.1854 156.86 41.1826H139.917C140.351 45.425 143.494 49.3053 147.941 49.3053C150.982 49.3053 153.231 48.1412 154.918 45.6837C154.996 45.5546 155.105 45.447 155.234 45.3703C155.363 45.2936 155.509 45.2502 155.659 45.2439C155.77 45.2407 155.882 45.2606 155.985 45.3024C156.089 45.3441 156.183 45.4069 156.262 45.4868C156.341 45.5667 156.403 45.6621 156.444 45.7671C156.486 45.8722 156.505 45.9846 156.502 46.0976C156.503 46.2536 156.458 46.4065 156.374 46.5374C154.662 49.5381 151.263 51.0126 147.941 51.0126C142.242 51.0126 138.153 45.8389 138.153 40.3289C138.153 34.819 142.217 29.6453 147.941 29.6453C153.614 29.6453 157.754 34.7672 157.78 40.2772ZM155.94 39.4753C155.582 35.2328 152.362 31.3526 147.916 31.3526C143.469 31.3526 140.326 35.2328 139.891 39.4753H155.94Z" fill="white"/>
<path d="M178.608 30.861C178.624 31.0907 178.55 31.3175 178.401 31.492C178.253 31.6665 178.042 31.7744 177.816 31.7923C172.832 32.5425 170.583 36.6555 170.583 41.4412V49.6415C170.583 49.8601 170.506 50.0713 170.365 50.2373C170.225 50.4032 170.03 50.513 169.817 50.5469C169.698 50.5629 169.576 50.5527 169.461 50.5169C169.346 50.4812 169.24 50.4207 169.151 50.3396C169.061 50.2586 168.989 50.1589 168.941 50.0473C168.893 49.9358 168.869 49.815 168.871 49.6932V30.9903C168.872 30.7718 168.949 30.5605 169.09 30.3946C169.23 30.2286 169.425 30.1188 169.638 30.085C169.757 30.0689 169.878 30.0791 169.993 30.1149C170.108 30.1507 170.214 30.2111 170.304 30.2922C170.394 30.3732 170.465 30.473 170.514 30.5845C170.562 30.6961 170.586 30.8169 170.583 30.9386V34.7413C171.989 32.3355 174.775 30.0591 177.688 30.0591C178.122 30.0591 178.608 30.3695 178.608 30.861Z" fill="white"/>
<path d="M206.463 40.2772C206.459 40.5205 206.36 40.7524 206.188 40.922C206.015 41.0917 205.784 41.1854 205.543 41.1826H188.6C189.034 45.425 192.178 49.3053 196.624 49.3053C199.665 49.3053 201.914 48.1412 203.601 45.6837C203.679 45.5546 203.788 45.447 203.917 45.3703C204.046 45.2936 204.192 45.2502 204.342 45.2439C204.454 45.2407 204.565 45.2606 204.668 45.3024C204.772 45.3441 204.866 45.4069 204.945 45.4868C205.024 45.5667 205.086 45.6621 205.128 45.7671C205.169 45.8722 205.189 45.9846 205.185 46.0976C205.186 46.2536 205.142 46.4065 205.058 46.5374C203.345 49.5381 199.946 51.0126 196.624 51.0126C190.925 51.0126 186.836 45.8389 186.836 40.3289C186.836 34.819 190.9 29.6453 196.624 29.6453C202.349 29.6453 206.438 34.7672 206.463 40.2772ZM204.649 39.4753C204.291 35.2328 201.071 31.3526 196.624 31.3526C192.178 31.3526 189.034 35.2328 188.6 39.4753H204.649Z" fill="white"/>
<path d="M233.859 31.068V49.8485C233.852 50.0728 233.761 50.2862 233.605 50.4449C233.448 50.6036 233.237 50.6956 233.015 50.7021C232.904 50.7053 232.793 50.6855 232.689 50.6437C232.585 50.6019 232.491 50.5392 232.412 50.4592C232.333 50.3793 232.271 50.2839 232.23 50.1789C232.189 50.0739 232.169 49.9614 232.172 49.8485V46.2786C230.767 49.0983 228.288 51.1419 225.119 51.1419C220.084 51.1419 217.299 46.7184 217.299 42.0362V31.0421C217.301 30.8163 217.39 30.6004 217.548 30.4407C217.706 30.2811 217.919 30.1905 218.142 30.1884C218.364 30.195 218.575 30.287 218.731 30.4457C218.888 30.6044 218.979 30.8178 218.986 31.0421V42.0362C218.986 45.7354 221.056 49.4087 225.119 49.4087C230.818 49.4087 232.172 44.0022 232.172 38.0266V31.0162C232.174 30.8778 232.209 30.7419 232.273 30.6198C232.338 30.4978 232.43 30.3931 232.543 30.3146C232.655 30.236 232.785 30.186 232.92 30.1685C233.056 30.1511 233.194 30.1668 233.322 30.2143C233.483 30.2899 233.619 30.4104 233.714 30.5617C233.809 30.713 233.859 30.8887 233.859 31.068Z" fill="white"/>
<path d="M276.766 38.7251V49.7192C276.76 49.9435 276.669 50.1569 276.512 50.3156C276.356 50.4743 276.145 50.5663 275.923 50.5729C275.812 50.5761 275.7 50.5562 275.597 50.5144C275.493 50.4727 275.399 50.4099 275.32 50.33C275.241 50.2501 275.179 50.1547 275.138 50.0496C275.096 49.9446 275.077 49.8322 275.08 49.7192V38.7251C275.08 35.0259 273.01 31.4043 268.946 31.4043C263.835 31.4043 261.893 36.9402 261.893 41.2343V49.7192C261.887 49.9435 261.796 50.1569 261.639 50.3156C261.482 50.4743 261.271 50.5663 261.05 50.5729C260.938 50.5761 260.827 50.5562 260.723 50.5144C260.62 50.4727 260.525 50.4099 260.446 50.33C260.367 50.2501 260.305 50.1547 260.264 50.0496C260.223 49.9446 260.203 49.8322 260.206 49.7192V38.7251C260.206 35.0259 258.136 31.4043 254.073 31.4043C248.911 31.4043 246.79 35.5174 246.969 41.0015C246.969 41.1309 247.02 41.3637 246.969 41.4413V49.6933C246.968 49.9119 246.891 50.1232 246.75 50.2891C246.61 50.4551 246.415 50.5649 246.202 50.5987C246.083 50.6148 245.962 50.6045 245.847 50.5688C245.732 50.533 245.626 50.4725 245.536 50.3915C245.446 50.3104 245.375 50.2107 245.326 50.0992C245.278 49.9876 245.254 49.8668 245.256 49.7451V30.9904C245.257 30.7719 245.334 30.5606 245.475 30.3946C245.615 30.2287 245.81 30.1189 246.023 30.085C246.142 30.069 246.264 30.0792 246.379 30.115C246.494 30.1508 246.6 30.2112 246.689 30.2923C246.779 30.3733 246.851 30.4731 246.899 30.5846C246.947 30.6962 246.971 30.817 246.969 30.9387V34.0688C248.425 31.4302 251.032 29.697 254.073 29.697C257.523 29.697 260.206 31.9217 261.305 35.1553C262.711 31.9476 265.445 29.697 268.946 29.697C273.93 29.697 276.766 34.0688 276.766 38.7251Z" fill="white"/>
<path opacity="0.6" d="M21.9777 25.8943L0.766602 35.6467L21.9777 48.3481L43.2144 35.6467L21.9777 25.8943Z" fill="black"/>
<path opacity="0.45" d="M0.766602 35.6467L21.9777 48.3481V0L0.766602 35.6467Z" fill="black"/>
<path opacity="0.8" d="M21.9775 0V48.3481L43.2142 35.6467L21.9775 0Z" fill="black"/>
<path opacity="0.45" d="M0.766602 39.7339L21.9777 70V52.4094L0.766602 39.7339Z" fill="black"/>
<path opacity="0.8" d="M21.9775 52.4094V70L43.2142 39.7339L21.9775 52.4094Z" fill="black"/>
<g clip-path="url(#clip0_3567_4802)">
<path d="M21.8521 69.7182V52.3233L0.623535 39.7397L21.8521 69.7182Z" fill="#F0CDC2" stroke="#1616B4" stroke-linejoin="round"/>
<path d="M21.9224 69.7182V52.3233L43.1508 39.7397L21.9224 69.7182Z" fill="#C9B3F5" stroke="#1616B4" stroke-linejoin="round"/>
<path d="M21.852 47.9997V25.7991L0.379883 35.5452L21.852 47.9997Z" fill="#88AAF1" stroke="#1616B4" stroke-linejoin="round"/>
<path d="M21.9224 47.9997V25.7991L43.3945 35.5452L21.9224 47.9997Z" fill="#C9B3F5" stroke="#1616B4" stroke-linejoin="round"/>
<path d="M0.379883 35.5453L21.8519 0.385254V25.7991L0.379883 35.5453Z" fill="#F0CDC2" stroke="#1616B4" stroke-linejoin="round"/>
<path d="M43.3944 35.5453L21.9224 0.385254V25.7991L43.3944 35.5453Z" fill="#B8FAF6" stroke="#1616B4" stroke-linejoin="round"/>
</g>
<defs>
<clipPath id="clip0_3567_4802">
<rect width="43.7" height="70.1035" fill="white"/>
</clipPath>
</defs>
</svg>
