<svg width="151" height="42" viewBox="0 0 151 42" fill="none" xmlns="http://www.w3.org/2000/svg">
<path d="M0.386719 10.1179H9.31076L14.5073 23.401L19.771 10.1179H28.4598L15.3763 41.5633H6.6321L10.2135 33.2307L0.386719 10.1179Z" fill="#7226F4"/>
<path d="M37.5112 9.5892C30.8061 9.5892 26.5674 15.5975 26.5674 21.5806C26.5674 28.3135 31.2147 33.6514 37.3839 33.6514C41.9859 33.6514 43.721 30.8501 43.721 30.8501V33.0322H51.5044V10.1182H43.721V12.2014C43.721 12.2014 41.7852 9.5892 37.5112 9.5892ZM39.1667 16.9531C42.2603 16.9531 43.8571 19.3989 43.8571 21.6058C43.8571 23.9824 42.1465 26.3147 39.1667 26.3147C36.697 26.3147 34.4652 24.298 34.4652 21.7069C34.4655 19.0794 36.2604 16.9531 39.1667 16.9531Z" fill="#7226F4"/>
<path d="M54.1855 33.0325V0H62.3266V12.2807C62.3266 12.2807 64.2601 9.59218 68.31 9.59218C73.2638 9.59218 76.1663 13.2801 76.1663 18.5499V33.0325H68.0847V20.5335C68.0847 18.7502 67.2343 17.0274 65.3085 17.0274C63.3482 17.0274 62.3266 18.7763 62.3266 20.5335V33.0322L54.1855 33.0325Z" fill="#7226F4"/>
<path d="M90.0465 9.59195C82.3677 9.59195 77.7959 15.4256 77.7959 21.676C77.7959 28.7887 83.3317 33.6514 90.0756 33.6514C96.6119 33.6514 102.332 29.0094 102.332 21.7949C102.332 13.9017 96.3432 9.59195 90.0465 9.59195ZM90.1199 17.0205C92.8323 17.0205 94.7089 19.2777 94.7089 21.6847C94.7089 23.7376 92.96 26.27 90.1199 26.27C87.5174 26.27 85.5644 24.1839 85.5644 21.6622C85.5641 19.233 87.1879 17.0205 90.1199 17.0205Z" fill="#7226F4"/>
<path d="M115.894 9.59195C108.215 9.59195 103.644 15.4256 103.644 21.676C103.644 28.7887 109.179 33.6514 115.923 33.6514C122.46 33.6514 128.179 29.0094 128.179 21.7949C128.179 13.9017 122.191 9.59195 115.894 9.59195ZM115.968 17.0205C118.68 17.0205 120.557 19.2777 120.557 21.6847C120.557 23.7376 118.808 26.27 115.968 26.27C113.365 26.27 111.412 24.1839 111.412 21.6622C111.412 19.233 113.035 17.0205 115.968 17.0205Z" fill="#7226F4"/>
<path d="M134.603 22.7162C137.589 22.7162 140.009 25.1345 140.009 28.1176C140.009 31.1006 137.589 33.5189 134.603 33.5189C131.617 33.5189 129.197 31.1006 129.197 28.1176C129.197 25.1345 131.617 22.7162 134.603 22.7162Z" fill="#7226F4"/>
<path d="M141.786 20.7321H132.054L140.691 0H150.387L141.786 20.7321Z" fill="#7226F4"/>
</svg>
