<svg width="21" height="21" viewBox="0 0 21 21" fill="none" xmlns="http://www.w3.org/2000/svg">
<path fill-rule="evenodd" clip-rule="evenodd" d="M0.837496 6.913H4.7365V20.5H0.837496V6.913ZM2.6875 5.213H2.6595C1.2485 5.213 0.333496 4.175 0.333496 2.86C0.333496 1.518 1.2755 0.5 2.7145 0.5C4.1525 0.5 5.0375 1.515 5.0645 2.856C5.0645 4.171 4.1525 5.214 2.6875 5.214V5.213ZM20.3335 20.5H15.9135V13.468C15.9135 11.628 15.2215 10.373 13.7015 10.373C12.5385 10.373 11.8915 11.22 11.5915 12.038C11.4775 12.33 11.4955 12.738 11.4955 13.148V20.5H7.1155C7.1155 20.5 7.1725 8.045 7.1155 6.913H11.4955V9.045C11.7545 8.113 13.1535 6.782 15.3855 6.782C18.1565 6.782 20.3335 8.738 20.3335 12.945V20.5Z" fill="white"/>
</svg>
