<svg width="135" height="28" viewBox="0 0 135 28" fill="none" xmlns="http://www.w3.org/2000/svg">
<path d="M16.437 17.422C16.432 17.857 16.227 22.039 10.818 22.039C5.491 22.039 5.289 17.857 5.286 17.426V2.628H6.886V16.388C6.886 18.02 7.561 20.506 10.818 20.506C14.142 20.506 14.836 18.02 14.836 16.388V0.828003H13.036V16.39C13.1106 17.0063 12.905 17.6236 12.4758 18.0722C12.0466 18.5207 11.439 18.7533 10.82 18.706C10.2105 18.7437 9.61643 18.5047 9.20283 18.0554C8.78923 17.6061 8.60011 16.9943 8.688 16.39V0.828003H3.488V17.805C3.488 17.866 3.571 23.846 10.823 23.846C18.159 23.846 18.245 17.866 18.245 17.805V2.628H19.845V18.428C19.845 18.704 19.502 25.368 10.822 25.368C2.142 25.368 1.801 18.704 1.8 18.431V0.828003H0V18.621C0 18.707 0.307 27.172 10.823 27.172C21.339 27.172 21.647 18.707 21.647 18.621V0.828003H16.442L16.437 17.422Z" fill="white"/>
<path d="M42.2675 8.06V15.098C42.2675 16.778 41.8175 18.038 40.9175 18.878C40.0295 19.706 38.7095 20.12 36.9575 20.12C35.2175 20.12 33.8975 19.706 32.9975 18.878C32.0975 18.038 31.6475 16.778 31.6475 15.098V8.06H34.7615V15.152C34.7615 16.004 34.9415 16.64 35.3015 17.06C35.6735 17.48 36.2255 17.69 36.9575 17.69C37.7015 17.69 38.2535 17.48 38.6135 17.06C38.9855 16.64 39.1715 16.004 39.1715 15.152V8.06H42.2675Z" fill="white"/>
<path d="M47.7568 17.546H53.7148V19.94H44.6608V8.06H47.7568V17.546Z" fill="white"/>
<path d="M66.2889 19.94H63.1029L62.2749 17.258H58.2069L57.3609 19.94H54.2469L58.4229 8.06H62.1309L66.2889 19.94ZM58.7829 15.152H61.6989L60.2409 10.346L58.7829 15.152Z" fill="white"/>
<path d="M81.4225 8.06V19.94H78.6865V14.486L78.7765 10.832H78.7405L75.8065 19.94H73.3045L70.3705 10.832H70.3345L70.4245 14.486V19.94H67.6705V8.06H72.0805L73.9525 14.108L74.6185 16.628H74.6545L75.3385 14.126L77.1925 8.06H81.4225Z" fill="white"/>
<path d="M92.2997 17.546H98.2577V19.94H89.2037V8.06H92.2997V17.546Z" fill="white"/>
<path d="M110.832 19.94H107.646L106.818 17.258H102.75L101.904 19.94H98.7898L102.966 8.06H106.674L110.832 19.94ZM103.326 15.152H106.242L104.784 10.346L103.326 15.152Z" fill="white"/>
<path d="M112.213 19.94V8.06H117.991C119.455 8.072 120.535 8.354 121.231 8.906C121.927 9.44601 122.275 10.232 122.275 11.264C122.275 11.936 122.077 12.518 121.681 13.01C121.285 13.49 120.679 13.796 119.863 13.928V13.946C120.775 14.066 121.453 14.384 121.897 14.9C122.353 15.404 122.581 16.016 122.581 16.736C122.581 17.756 122.221 18.548 121.501 19.112C120.781 19.664 119.701 19.94 118.261 19.94H112.213ZM115.201 17.762H117.739C118.303 17.762 118.723 17.648 118.999 17.42C119.275 17.192 119.413 16.862 119.413 16.43C119.413 16.01 119.275 15.692 118.999 15.476C118.723 15.248 118.303 15.134 117.739 15.134H115.201V17.762ZM115.201 12.92H117.451C118.555 12.92 119.107 12.488 119.107 11.624C119.107 10.76 118.555 10.328 117.451 10.328H115.201V12.92Z" fill="white"/>
<path d="M129.162 7.88C130.266 7.88 131.238 8.054 132.078 8.402C132.93 8.738 133.668 9.236 134.292 9.896L132.798 11.894C132.282 11.354 131.724 10.952 131.124 10.688C130.536 10.412 129.864 10.274 129.108 10.274C128.664 10.274 128.304 10.322 128.028 10.418C127.752 10.514 127.554 10.646 127.434 10.814C127.314 10.982 127.254 11.174 127.254 11.39C127.254 11.642 127.368 11.858 127.596 12.038C127.836 12.206 128.22 12.35 128.748 12.47L130.746 12.92C131.934 13.196 132.804 13.598 133.356 14.126C133.908 14.654 134.184 15.356 134.184 16.232C134.184 17.072 133.968 17.786 133.536 18.374C133.104 18.95 132.51 19.388 131.754 19.688C130.998 19.976 130.134 20.12 129.162 20.12C128.37 20.12 127.614 20.036 126.894 19.868C126.174 19.688 125.526 19.436 124.95 19.112C124.374 18.788 123.888 18.416 123.492 17.996L124.986 15.926C125.286 16.274 125.652 16.586 126.084 16.862C126.528 17.126 127.008 17.336 127.524 17.492C128.052 17.648 128.586 17.726 129.126 17.726C129.546 17.726 129.894 17.684 130.17 17.6C130.458 17.516 130.668 17.39 130.8 17.222C130.932 17.054 130.998 16.856 130.998 16.628C130.998 16.376 130.908 16.166 130.728 15.998C130.548 15.818 130.206 15.668 129.702 15.548L127.506 15.062C126.834 14.906 126.234 14.702 125.706 14.45C125.19 14.186 124.782 13.838 124.482 13.406C124.182 12.962 124.032 12.41 124.032 11.75C124.032 11.006 124.236 10.346 124.644 9.77001C125.052 9.182 125.64 8.72001 126.408 8.38401C127.176 8.04801 128.094 7.88 129.162 7.88Z" fill="white"/>
</svg>
