<svg width="22" height="28" viewBox="0 0 22 28" fill="none" xmlns="http://www.w3.org/2000/svg">
<path d="M16.437 17.422C16.432 17.857 16.227 22.039 10.818 22.039C5.491 22.039 5.289 17.857 5.286 17.426V2.628H6.886V16.388C6.886 18.02 7.561 20.506 10.818 20.506C14.142 20.506 14.836 18.02 14.836 16.388V0.828003H13.036V16.39C13.1106 17.0063 12.905 17.6236 12.4758 18.0722C12.0466 18.5207 11.439 18.7533 10.82 18.706C10.2105 18.7437 9.61643 18.5047 9.20283 18.0554C8.78923 17.6061 8.60011 16.9943 8.688 16.39V0.828003H3.488V17.805C3.488 17.866 3.571 23.846 10.823 23.846C18.159 23.846 18.245 17.866 18.245 17.805V2.628H19.845V18.428C19.845 18.704 19.502 25.368 10.822 25.368C2.142 25.368 1.801 18.704 1.8 18.431V0.828003H0V18.621C0 18.707 0.307 27.172 10.823 27.172C21.339 27.172 21.647 18.707 21.647 18.621V0.828003H16.442L16.437 17.422Z" fill="white"/>
</svg>
