<svg xmlns="http://www.w3.org/2000/svg" xmlns:xlink="http://www.w3.org/1999/xlink" width="57" height="34.908" viewBox="0 0 57 34.908"><defs><clipPath id="clip-path"><path id="Path_15798" data-name="Path 15798" d="M200.11 226.013l-5.429 3.133a.655.655.0 0 0-.328.568v6.271a.656.656.0 0 0 .328.568l5.429 3.135a.656.656.0 0 0 .656.0l5.428-3.135a.656.656.0 0 0 .328-.568v-6.271a.655.655.0 0 0-.328-.568l-5.428-3.133a.655.655.0 0 0-.656.0" transform="translate(-194.353 -225.925)" fill="none"/></clipPath><linearGradient id="linear-gradient" x1="-1.247" y1="2.922" x2="-1.24" y2="2.922" gradientUnits="objectBoundingBox"><stop offset="0" stop-color="#3f873f"/><stop offset=".33" stop-color="#3e8a3d"/><stop offset=".637" stop-color="#3e9537"/><stop offset=".934" stop-color="#3da82d"/><stop offset="1" stop-color="#3dae2b"/></linearGradient><clipPath id="clip-path-2"><path id="Path_15799" data-name="Path 15799" d="M195.4 236.519a.655.655.0 0 0 .193.17l4.657 2.69.775.446a.66.66.0 0 0 .378.086.651.651.0 0 0 .129-.024l5.725-10.483a.651.651.0 0 0-.152-.121l-3.555-2.052-1.879-1.081a.655.655.0 0 0-.17-.068z" transform="translate(-195.4 -226.081)" fill="none"/></clipPath><linearGradient id="linear-gradient-2" x1="-1.252" y1="2.77" x2="-1.244" y2="2.77" gradientUnits="objectBoundingBox"><stop offset="0" stop-color="#3f873f"/><stop offset=".138" stop-color="#3f873f"/><stop offset=".397" stop-color="#519f44"/><stop offset=".711" stop-color="#63b649"/><stop offset=".908" stop-color="#6abf4b"/><stop offset="1" stop-color="#6abf4b"/></linearGradient><clipPath id="clip-path-4"><path id="Path_15800" data-name="Path 15800" d="M237.122 217.669l-.075.043h.1z" transform="translate(-237.047 -217.669)" fill="none"/></clipPath><linearGradient id="linear-gradient-3" x1="-306.315" y1="1154.781" x2="-305.001" y2="1154.781" gradientUnits="objectBoundingBox"><stop offset="0" stop-color="#6abf4b"/><stop offset=".092" stop-color="#6abf4b"/><stop offset=".289" stop-color="#63b649"/><stop offset=".603" stop-color="#519f44"/><stop offset=".862" stop-color="#3f873f"/><stop offset="1" stop-color="#3f873f"/></linearGradient><clipPath id="clip-path-5"><path id="Path_15802" data-name="Path 15802" d="M202.694 225.936a.653.653.0 0 0-.262.084l-5.414 3.124 5.836 10.632a.652.652.0 0 0 .233-.081l5.428-3.135a.657.657.0 0 0 .317-.448l-5.95-10.165a.682.682.0 0 0-.133-.013h-.055" transform="translate(-197.018 -225.934)" fill="none"/></clipPath><linearGradient id="linear-gradient-4" x1="-2.149" y1="3.482" x2="-2.138" y2="3.482" xlink:href="#linear-gradient-3"/><clipPath id="clip-path-7"><path id="Path_15803" data-name="Path 15803" d="M290.036 307.2l-.036-.062v.082z" transform="translate(-290 -307.143)" fill="none"/></clipPath><linearGradient id="linear-gradient-5" x1="-1040.174" y1="457.884" x2="-1036.67" y2="457.884" xlink:href="#linear-gradient-3"/><clipPath id="clip-path-9"><path id="Path_15805" data-name="Path 15805" d="M247.987 305.581l-5.435 3.135a.655.655.0 0 1-.24.082l.108.2 6.036-3.494v-.082l-.149-.255a.686.686.0 0 1-.321.417" transform="translate(-242.313 -305.164)" fill="none"/></clipPath><linearGradient id="linear-gradient-6" x1="-5.081" y1="9.915" x2="-5.06" y2="9.915" xlink:href="#linear-gradient-3"/><linearGradient id="linear-gradient-7" x1="-5.081" y1="5.508" x2="-5.06" y2="5.508" xlink:href="#linear-gradient"/></defs><g id="node" transform="translate(-78.306 -164.018)"><g id="Group_725" data-name="Group 725" transform="translate(78.306 164.017)"><path id="Path_15791" data-name="Path 15791" d="M254.851 339.975a1.078 1.078.0 0 1-.54-.144l-1.719-1.017c-.257-.144-.131-.194-.047-.224a3.42 3.42.0 0 0 .777-.353.132.132.0 0 1 .128.01l1.32.784a.169.169.0 0 0 .159.0l5.148-2.971a.162.162.0 0 0 .079-.139v-5.941a.165.165.0 0 0-.08-.142l-5.146-2.969a.161.161.0 0 0-.159.0l-5.144 2.969a.165.165.0 0 0-.082.141v5.941a.158.158.0 0 0 .081.137l1.41.815c.765.383 1.234-.068 1.234-.521v-5.865a.148.148.0 0 1 .15-.148h.653a.149.149.0 0 1 .149.148v5.865a1.427 1.427.0 0 1-1.524 1.607 2.2 2.2.0 0 1-1.186-.322l-1.35-.777a1.087 1.087.0 0 1-.54-.939v-5.941a1.085 1.085.0 0 1 .54-.938l5.148-2.975a1.129 1.129.0 0 1 1.082.0l5.147 2.975a1.087 1.087.0 0 1 .541.938v5.941a1.09 1.09.0 0 1-.541.939l-5.147 2.972a1.078 1.078.0 0 1-.542.144" transform="translate(-226.678 -305.066)" fill="#679e63"/><path id="Path_15792" data-name="Path 15792" d="M290.873 364.626c-2.253.0-2.724-1.034-2.724-1.9a.148.148.0 0 1 .149-.148h.666a.149.149.0 0 1 .148.126c.1.678.4 1.02 1.762 1.02 1.084.0 1.546-.245 1.546-.821.0-.332-.131-.578-1.816-.743-1.408-.139-2.28-.45-2.28-1.577.0-1.039.875-1.658 2.343-1.658 1.649.0 2.465.572 2.568 1.8a.149.149.0 0 1-.148.162h-.668a.148.148.0 0 1-.144-.116c-.16-.713-.55-.941-1.608-.941-1.184.0-1.322.412-1.322.722.0.374.162.483 1.761.695 1.582.209 2.333.505 2.333 1.617s-.935 1.764-2.566 1.764" transform="translate(-261.11 -333.809)" fill="#679e63"/><path id="Path_15793" data-name="Path 15793" d="M353.484 348.122a.992.992.0 1 1-.992-.992.995.995.0 0 1 .992.992m-1.824.0a.832.832.0 1 0 .829-.829.832.832.0 0 0-.829.829m.459-.554h.383c.131.0.389.0.389.294a.256.256.0 0 1-.21.273c.153.01.163.11.184.252a1.1 1.1.0 0 0 .058.294h-.236c-.006-.052-.042-.336-.042-.351-.015-.063-.037-.094-.115-.094h-.194v.446h-.215zm.21.488h.173a.15.15.0 0 0 .168-.157c0-.152-.105-.152-.163-.152h-.178z" transform="translate(-316.298 -323.535)" fill="#679e63"/><path id="Path_15794" data-name="Path 15794" d="M90.539 228.873a.658.658.0 0 0-.33-.573l-5.458-3.141a.641.641.0 0 0-.3-.087h-.056a.651.651.0 0 0-.3.087L78.636 228.3a.661.661.0 0 0-.33.573l.012 8.457a.324.324.0 0 0 .165.285.317.317.0 0 0 .327.0l3.243-1.857a.664.664.0 0 0 .33-.572v-3.951a.657.657.0 0 1 .329-.571l1.381-.8a.656.656.0 0 1 .33-.089.646.646.0 0 1 .328.089l1.381.8a.657.657.0 0 1 .33.571v3.951a.665.665.0 0 0 .33.572l3.243 1.857a.321.321.0 0 0 .329.0.329.329.0 0 0 .164-.285z" transform="translate(-78.306 -217.206)" fill="#333" fill-rule="evenodd"/><path id="Path_15795" data-name="Path 15795" d="M318.55 164.058a.33.33.0 0 0-.49.288v8.375a.23.23.0 0 1-.346.2l-1.367-.788a.659.659.0 0 0-.659.0l-5.46 3.151a.659.659.0 0 0-.33.571v6.3a.66.66.0 0 0 .329.571l5.46 3.153a.66.66.0 0 0 .659.0l5.46-3.153a.66.66.0 0 0 .33-.571V166.447a.659.659.0 0 0-.338-.576zm-.507 16.03a.165.165.0 0 1-.082.142l-1.875 1.081a.165.165.0 0 1-.165.0l-1.874-1.081a.164.164.0 0 1-.083-.142v-2.165a.165.165.0 0 1 .082-.143l1.874-1.083a.165.165.0 0 1 .165.0l1.875 1.083a.165.165.0 0 1 .082.143z" transform="translate(-280.058 -164.017)" fill="#333" fill-rule="evenodd"/><path id="Path_15796" data-name="Path 15796" d="M437.862 231.573a.659.659.0 0 0 .328-.57v-1.527a.659.659.0 0 0-.328-.57l-5.425-3.15a.659.659.0 0 0-.661.0l-5.458 3.151a.659.659.0 0 0-.33.571v6.3a.659.659.0 0 0 .333.573l5.424 3.091a.659.659.0 0 0 .646.0l3.281-1.823a.33.33.0 0 0 0-.574l-5.492-3.152a.33.33.0 0 1-.166-.286v-1.975a.329.329.0 0 1 .165-.285l1.709-.986a.33.33.0 0 1 .329.0l1.71.986a.329.329.0 0 1 .165.285v1.554a.33.33.0 0 0 .5.285z" transform="translate(-381.189 -217.723)" fill="#333" fill-rule="evenodd"/><path id="Path_15797" data-name="Path 15797" d="M465.337 269.1a.127.127.0 0 1 .127.0l1.048.6a.127.127.0 0 1 .063.11v1.21a.127.127.0 0 1-.063.11l-1.048.6a.127.127.0 0 1-.127.0l-1.047-.6a.127.127.0 0 1-.063-.11v-1.21a.127.127.0 0 1 .063-.11z" transform="translate(-414.5 -255.545)" fill="#679e63" fill-rule="evenodd"/></g><g id="Group_727" data-name="Group 727" transform="translate(93.259 171.994)"><g id="Group_726" data-name="Group 726" transform="translate(0 0)" clip-path="url(#clip-path)"><path id="Rectangle_603" data-name="Rectangle 603" d="M0 0h17.819v17.036H0z" transform="translate(-5.486 11.191) rotate(-63.886)" fill="url(#linear-gradient)"/></g></g><g id="Group_729" data-name="Group 729" transform="translate(93.394 172.014)"><g id="Group_728" data-name="Group 728" transform="translate(0 0)" clip-path="url(#clip-path-2)"><path id="Rectangle_604" data-name="Rectangle 604" d="M0 0h17.76v18.176H0z" transform="matrix(0.804, -0.594, 0.594, 0.804, -6.614, 4.887)" fill="url(#linear-gradient-2)"/></g></g><g id="Group_733" data-name="Group 733" transform="translate(93.259 171.994)"><g id="Group_732" data-name="Group 732" transform="translate(0 0)" clip-path="url(#clip-path)"><g id="Group_731" data-name="Group 731" transform="translate(5.501 -1.064)"><g id="Group_730" data-name="Group 730" clip-path="url(#clip-path-4)"><path id="Rectangle_605" data-name="Rectangle 605" d="M0 0h.1v.043H0z" fill="url(#linear-gradient-3)"/></g></g></g></g><g id="Group_735" data-name="Group 735" transform="translate(93.602 171.995)"><g id="Group_734" data-name="Group 734" clip-path="url(#clip-path-5)"><path id="Rectangle_606" data-name="Rectangle 606" d="M0 0h11.814v13.843H0z" transform="translate(0 0)" fill="url(#linear-gradient-4)"/></g></g><g id="Group_739" data-name="Group 739" transform="translate(93.259 171.994)"><g id="Group_738" data-name="Group 738" transform="translate(0 0)" clip-path="url(#clip-path)"><g id="Group_737" data-name="Group 737" transform="translate(12.324 10.465)"><g id="Group_736" data-name="Group 736" clip-path="url(#clip-path-7)"><path id="Rectangle_607" data-name="Rectangle 607" d="M0 0h.036v.082H0z" fill="url(#linear-gradient-5)"/></g></g></g></g><g id="Group_743" data-name="Group 743" transform="translate(93.259 171.994)"><g id="Group_742" data-name="Group 742" transform="translate(0 0)" clip-path="url(#clip-path)"><g id="Group_741" data-name="Group 741" transform="translate(6.18 10.21)"><g id="Group_740" data-name="Group 740" clip-path="url(#clip-path-9)"><path id="Rectangle_608" data-name="Rectangle 608" d="M0 0h6.145v3.831H0z" transform="translate(0 0)" fill="url(#linear-gradient-6)"/></g></g></g></g><g id="Group_747" data-name="Group 747" transform="translate(93.259 171.994)"><g id="Group_746" data-name="Group 746" transform="translate(0 0)" clip-path="url(#clip-path)"><g id="Group_745" data-name="Group 745" transform="translate(6.18 10.21)"><g id="Group_744" data-name="Group 744" clip-path="url(#clip-path-9)"><path id="Rectangle_609" data-name="Rectangle 609" d="M0 0h6.145v7.204H0z" transform="translate(-1.514 3.089) rotate(-63.886)" fill="url(#linear-gradient-7)"/></g></g></g></g></g></svg>