<svg width="67" height="67.059" xmlns="http://www.w3.org/2000/svg"><defs><linearGradient gradientUnits="objectBoundingBox" y2="1.3" x2="1.581" y1=".171" x1=".256" id="linear-gradient"><stop stop-color="#5a9fd4" offset="0"/><stop stop-color="#306998" offset="1"/></linearGradient><linearGradient gradientUnits="objectBoundingBox" y2="1.221" x2=".943" y1="1.879" x1="1.415" id="linear-gradient-2"><stop stop-color="#ffd43b" offset="0"/><stop stop-color="#ffe873" offset="1"/></linearGradient><radialGradient gradientUnits="userSpaceOnUse" gradientTransform="translate(431.057 -1246.872) rotate(-90) scale(0.194 1.037)" r="5.215" cy="-1059.012" cx="-620.311" id="radial-gradient"><stop stop-opacity=".498" stop-color="#b8b8b8" offset="0"/><stop stop-opacity="0" stop-color="#7f7f7f" offset="1"/></radialGradient></defs><g><title>background</title><path fill="none" id="canvas_background" d="M-1-1h69v69.059H-1z"/></g><g><title>Layer 1</title><g stroke="null" id="svg_1"><path stroke="null" fill="url(#linear-gradient)" d="m33.624471 1.600391a27.825292 26.81147.0 0 0-4.656848.382865c-4.123275.702283-4.872548 2.170296-4.872548 4.880978v3.579238h9.745096v1.19235h-13.396101a6.085009 5.8633.0 0 0-6.09182 4.754086 18.214157 17.550519.0 0 0 0 9.543177c.694781 2.780692 2.345453 4.765025 5.176798 4.765025h3.351296v-4.294648a6.191723 5.966126.0 0 1 6.087279-5.832671h9.733743a4.908876 4.73002.0 0 0 4.872548-4.771588v-8.948096a5.449262 5.250716.0 0 0-4.872548-4.880978 30.393256 29.28587.0 0 0-5.076895-.369738zm-5.26989 2.872579a1.85729 1.789619.0 1 1-1.827773 1.793995 1.848208 1.780868.0 0 1 1.827773-1.793995z" id="path1948"/><path stroke="null" fill="url(#linear-gradient-2)" d="m44.427832 11.629258v4.169944a6.250757 6.023009.0 0 1-6.087279 5.953H28.60681a4.970181 4.789091.0 0 0-4.872548 4.771588v8.941532c0 2.54441 2.295501 4.040864 4.872548 4.771588a16.306915 15.712769.0 0 0 9.733743.0c2.452168-.684781 4.872548-2.060906 4.872548-4.771588v-3.579238h-9.733743v-1.19235H48.08565c2.831345.0 3.88714-1.903385 4.872548-4.760649a16.724692 16.115324.0 0 0 0-9.543177c-.699322-2.717246-2.043473-4.760649-4.872548-4.760649h-3.657817zm-5.474237 22.634963a1.85729 1.789619.0 1 1-1.827773 1.783056 1.839126 1.772117.0 0 1 1.827773-1.783056z" id="path1950"/><path stroke="null" fill="url(#radial-gradient)" opacity=".444" d="m46.648408 46.314621c0 1.347684-5.846604 2.439395-13.057793 2.439395s-13.057793-1.093899-13.057793-2.439395 5.846604-2.439395 13.057793-2.439395 13.057793 1.093899 13.057793 2.439395z" id="path1894"/></g><g id="svg_2"><path fill="#646464" d="m14.353031 56.745421q0-3.5-1.994-3.593a3.745 3.745.0 0 0-1.548.254 2.273 2.273.0 0 0-.813.429v5.564a3.95 3.95.0 0 0 2.264.743q2.09-.138 2.091-3.397zm1.64.1a4.944 4.944.0 0 1-.836 2.949 3.084 3.084.0 0 1-2.588 1.365 4.592 4.592.0 0 1-2.57-.78v5.057l-1.426-.509v-11.227a3.188 3.188.0 0 1 .9-.743 6.178 6.178.0 0 1 3.094-.761l.02.02a2.838 2.838.0 0 1 2.565 1.365 5.8 5.8.0 0 1 .84 3.261l.001.003z" id="path46"/><path fill="#646464" d="m24.709032 60.161421a7.888 7.888.0 0 1-.477 3.3 3.364 3.364.0 0 1-1.827 1.464 6.993 6.993.0 0 1-2.362.469l-.235-.9a11.35 11.35.0 0 0 1.816-.351 2.4 2.4.0 0 0 1.426-1.073 5.388 5.388.0 0 0 .312-2.245v-.371a7.326 7.326.0 0 1-3.066.663 2.818 2.818.0 0 1-1.855-.663 2.256 2.256.0 0 1-.9-1.835v-5.93l1.426-.488v5.974a1.815 1.815.0 0 0 .618 1.474 2.335 2.335.0 0 0 1.6.5 4 4 0 0 0 2.1-.761v-6.977h1.426l-.002 7.75z" id="path48"/><path fill="#646464" d="m30.274022 61.07842c-.17.014-.326.02-.469.02a2.807 2.807.0 0 1-1.885-.577 2 2 0 0 1-.672-1.6v-5.613h-.977v-.9h.977v-2.38l1.424-.507v2.89h1.6v.9h-1.6v5.578a1.351 1.351.0 0 0 .428 1.132 2.178 2.178.0 0 0 1.172.314l.002.743z" id="path50"/><path fill="#646464" d="m38.909029 60.96142h-1.426v-5.5a2.6 2.6.0 0 0-.392-1.445 1.425 1.425.0 0 0-1.256-.683 4.629 4.629.0 0 0-2.453 1.034v6.6h-1.425v-13.163l1.426-.449v5.992a4.968 4.968.0 0 1 2.988-1 2.381 2.381.0 0 1 1.835.761 2.681 2.681.0 0 1 .7 1.894v5.954l.003.005z" id="path52"/><path fill="#646464" d="m46.489019 56.521421a4.382 4.382.0 0 0-.509-2.22 2.129 2.129.0 0 0-1.874-1.128q-2.345.136-2.343 3.358a5.523 5.523.0 0 0 .49 2.467 1.969 1.969.0 0 0 1.882 1.242q2.354-.02 2.354-3.719zm1.562.009a5.072 5.072.0 0 1-.977 3.183 3.512 3.512.0 0 1-2.967 1.424 3.442 3.442.0 0 1-2.93-1.424 5.141 5.141.0 0 1-.956-3.183 4.544 4.544.0 0 1 1.035-3.027 3.564 3.564.0 0 1 2.871-1.307 3.624 3.624.0 0 1 2.891 1.307 4.544 4.544.0 0 1 1.033 3.027z" id="path54"/><path fill="#646464" d="m56.226038 60.961421h-1.428v-5.816a1.945 1.945.0 0 0-.576-1.495 2.091 2.091.0 0 0-1.534-.516 3.428 3.428.0 0 0-1.933.663v7.164h-1.426v-7.341a7.025 7.025.0 0 1 2.265-1.17 6.913 6.913.0 0 1 1.719-.254 4.462 4.462.0 0 1 .956.1 2.752 2.752.0 0 1 1.367.722 1.912 1.912.0 0 1 .587 1.406l.003 6.537z" id="path56"/><path fill="#646464" d="m59.00204 51.13942h.25v-1.568h.592v-.187h-1.435v.187h.592v1.568m1.064.0h.214v-1.432l.464 1.432h.238l.483-1.427v1.427h.233v-1.754h-.308l-.528 1.5-.45-1.5h-.345v1.754" id="text3004"/></g></g></svg>