<svg width="35" height="34" viewBox="0 0 35 34" fill="none" xmlns="http://www.w3.org/2000/svg">
<g clip-path="url(#clip0_2623_1743)">
<path d="M34.6664 17C34.6664 14.471 31.8454 12.074 27.5214 10.5878C28.5191 5.63834 28.0757 1.70081 26.1213 0.439571C25.6479 0.141317 25.1119 -0.00907214 24.5692 0.0040454V1.73967C24.8446 1.72955 25.1177 1.79925 25.3622 1.94205C26.3044 2.54919 26.7139 4.85634 26.3946 7.83295C26.3181 8.56153 26.1934 9.33462 26.0413 10.1207C24.5938 9.72872 23.1247 9.44531 21.6437 9.27229C20.7607 7.90455 19.7973 6.60454 18.76 5.38091C21.0194 3.02276 23.1403 1.73076 24.5814 1.73076V0C22.6753 0 20.1838 1.52514 17.6606 4.17148C15.1374 1.54133 12.643 0.0315726 10.7398 0.0315726V1.76719C12.1744 1.76719 14.3019 3.0511 16.5612 5.39386C15.5291 6.61399 14.5728 7.91228 13.6992 9.27957C12.2141 9.4503 10.7414 9.73621 9.29147 10.1352C9.13214 9.35728 9.01391 8.602 8.93101 7.87829C8.60515 4.90572 9.00742 2.59452 9.94029 1.97929C10.185 1.83251 10.4605 1.76259 10.7376 1.7769V0.0388543C10.1903 0.0256301 9.64968 0.175933 9.17107 0.47438C7.22459 1.73481 6.78699 5.66505 7.79195 10.5991C3.48158 12.0935 0.674316 14.4848 0.674316 17.004C0.674316 19.5233 3.49527 21.93 7.81935 23.4163C6.82159 28.3657 7.26496 32.3032 9.21937 33.5645C9.69508 33.8637 10.2336 34.0141 10.7787 34C12.6848 34 15.1763 32.4749 17.6995 29.8285C20.2228 32.4587 22.7172 33.9684 24.6204 33.9684C25.1677 33.9817 25.7083 33.8313 26.1869 33.5329C28.1334 32.2725 28.571 28.3422 27.5661 23.4082C31.8598 21.9219 34.6664 19.5249 34.6664 17ZM25.6434 11.8093C25.3867 12.8131 25.0666 13.8485 24.7062 14.8855C24.4221 14.263 24.1237 13.6405 23.7985 13.018C23.4734 12.3954 23.1403 11.7883 22.8008 11.1973C23.7863 11.3617 24.7357 11.564 25.6434 11.8134V11.8093ZM22.4713 20.0972C21.9306 21.1496 21.3762 22.1437 20.8009 23.0698C19.7686 23.171 18.7218 23.2252 17.6685 23.2252C16.6153 23.2252 15.5779 23.171 14.5498 23.0771C13.9731 22.151 13.4142 21.1653 12.873 20.1199C12.3443 19.1004 11.8637 18.068 11.4312 17.0227C11.8637 15.98 12.346 14.9373 12.8658 13.9173C13.4065 12.865 13.9609 11.8709 14.5362 10.9448C15.5685 10.8436 16.6153 10.7893 17.6685 10.7893C18.7218 10.7893 19.7592 10.8436 20.7872 10.9375C21.364 11.8636 21.9229 12.8493 22.4641 13.8947C22.9928 14.9141 23.4734 15.9465 23.9059 16.9919C23.4669 18.0386 22.9889 19.0821 22.4691 20.1013L22.4713 20.0972ZM24.7098 19.0853C25.0839 20.128 25.4026 21.1707 25.6664 22.1826C24.7588 22.4319 23.8021 22.6416 22.8109 22.8051C23.1504 22.206 23.49 21.5908 23.8086 20.961C24.1273 20.3312 24.4236 19.7119 24.7076 19.0894L24.7098 19.0853ZM17.6801 27.3927C17.0004 26.6003 16.3574 25.7691 15.7538 24.9026C16.3774 24.9333 17.0154 24.9568 17.6599 24.9568C18.3044 24.9568 18.9576 24.9414 19.5862 24.9026C18.9913 25.7706 18.355 26.6018 17.6801 27.3927ZM12.5241 22.8091C11.54 22.6472 10.5906 22.4432 9.68293 22.1947C9.93957 21.1909 10.2597 20.1555 10.6201 19.1185C10.9042 19.741 11.2026 20.3636 11.5278 20.9861C11.8529 21.6086 12.1845 22.2182 12.5241 22.8091ZM17.6426 6.61462C18.3223 7.40701 18.9652 8.23814 19.5689 9.10472C18.9453 9.07395 18.3073 9.05048 17.6628 9.05048C17.0183 9.05048 16.3651 9.06586 15.7365 9.10472C16.3323 8.23661 16.9696 7.40536 17.6455 6.61462H17.6426ZM12.514 11.1981C12.1744 11.7972 11.8349 12.4124 11.5162 13.0422C11.1976 13.672 10.8991 14.2873 10.6151 14.9098C10.2409 13.8671 9.92227 12.8245 9.65842 11.8126C10.5697 11.5721 11.5263 11.3617 12.5176 11.1981H12.514ZM6.24198 20.9416C3.79086 19.7661 2.20483 18.2256 2.20483 17.004C2.20483 15.7825 3.79086 14.2339 6.24198 13.0665C6.83818 12.7783 7.48917 12.5217 8.16179 12.2805C8.58579 13.8978 9.10676 15.4811 9.72113 17.0194C9.11339 18.5504 8.59939 20.1262 8.1827 21.7357C7.49999 21.4945 6.84827 21.2298 6.24558 20.9416H6.24198ZM9.97058 32.062C9.02833 31.4549 8.61885 29.1477 8.93821 26.1711C9.01463 25.4425 9.13935 24.6694 9.29147 23.8834C10.739 24.2753 12.2081 24.5587 13.6891 24.7318C14.5721 26.0995 15.5355 27.3995 16.5728 28.6231C14.3134 30.9813 12.1924 32.2733 10.7513 32.2733C10.4808 32.2753 10.2139 32.2028 9.97417 32.062H9.97058ZM26.4075 26.1322C26.7334 29.1048 26.3311 31.416 25.3982 32.0312C25.1535 32.178 24.8781 32.2479 24.6009 32.2336C23.1663 32.2336 21.0388 30.9497 18.7795 28.607C19.8116 27.3868 20.7679 26.0885 21.6415 24.7212C23.1266 24.5505 24.5993 24.2646 26.0492 23.8656C26.2059 24.6134 26.3271 25.37 26.4126 26.1322H26.4075ZM29.0749 20.9416C28.4787 21.2298 27.8277 21.4864 27.1551 21.7276C26.7311 20.1103 26.2102 18.527 25.5958 16.9887C26.2035 15.4577 26.7175 13.8819 27.1342 12.2724C27.8205 12.5152 28.4715 12.7783 29.0807 13.0665C31.5318 14.242 33.1179 15.7825 33.1179 17.004C33.1179 18.2256 31.534 19.7742 29.0807 20.9416H29.0749Z" fill="#61DAFB"/>
<path d="M17.6592 20.5602C19.4083 20.5602 20.8262 18.968 20.8262 17.004C20.8262 15.0399 19.4083 13.4478 17.6592 13.4478C15.9101 13.4478 14.4922 15.0399 14.4922 17.004C14.4922 18.968 15.9101 20.5602 17.6592 20.5602Z" fill="#61DAFB"/>
</g>
<defs>
<clipPath id="clip0_2623_1743">
<rect width="34" height="34" fill="white" transform="translate(0.666504)"/>
</clipPath>
</defs>
</svg>
