<svg width="337" height="50" viewBox="0 0 337 50" fill="none" xmlns="http://www.w3.org/2000/svg">
<path d="M56.5261 39.4218L47.2969 49.3177C47.0973 49.5326 46.8556 49.7042 46.5867 49.8215C46.3179 49.9389 46.0278 49.9997 45.7344 50H1.98442C1.77576 49.9999 1.57166 49.9389 1.3971 49.8245C1.22256 49.7102 1.08514 49.5475 1.00168 49.3562C0.918213 49.165 0.892327 48.9536 0.927192 48.7478C0.962056 48.5421 1.05615 48.3509 1.19796 48.1979L10.4167 38.302C10.6163 38.0871 10.8581 37.9156 11.1269 37.7982C11.3957 37.6808 11.6859 37.6201 11.9792 37.6197H55.7292C55.9396 37.6154 56.1469 37.6734 56.3245 37.7866C56.5021 37.8997 56.6428 38.0628 56.7276 38.2554C56.8131 38.4481 56.8391 38.6616 56.8032 38.8692C56.7672 39.0767 56.6709 39.269 56.5261 39.4218ZM47.2969 19.4895C47.0966 19.2756 46.8546 19.1047 46.586 18.9874C46.3173 18.8701 46.0275 18.8088 45.7344 18.8073H1.98442C1.77576 18.8074 1.57166 18.8683 1.3971 18.9827C1.22256 19.097 1.08514 19.2598 1.00168 19.4511C0.918213 19.6423 0.892327 19.8537 0.927192 20.0594C0.962056 20.2652 1.05615 20.4563 1.19796 20.6094L10.4167 30.5104C10.6171 30.7244 10.859 30.8952 11.1276 31.0126C11.3963 31.1299 11.6861 31.1912 11.9792 31.1927H55.7292C55.9375 31.1916 56.1407 31.1299 56.3146 31.0152C56.4886 30.9004 56.625 30.7376 56.7079 30.5466C56.7907 30.3555 56.8162 30.1445 56.7808 29.9392C56.7459 29.734 56.6521 29.5433 56.5105 29.3906L47.2969 19.4895ZM1.98442 12.3802H45.7344C46.0278 12.3799 46.3179 12.3191 46.5867 12.2017C46.8556 12.0844 47.0973 11.9128 47.2969 11.6979L56.5261 1.80207C56.6709 1.64921 56.7672 1.45692 56.8032 1.24937C56.8391 1.04182 56.8131 0.828297 56.7276 0.635661C56.6428 0.443026 56.5021 0.279889 56.3245 0.166778C56.1469 0.0536669 55.9396 -0.00436545 55.7292 -1.6431e-05H11.9792C11.6859 0.00029234 11.3957 0.0610346 11.1269 0.178423C10.8581 0.295811 10.6163 0.467327 10.4167 0.682276L1.19796 10.5781C1.05615 10.7312 0.962056 10.9223 0.927192 11.128C0.892327 11.3338 0.918213 11.5452 1.00168 11.7364C1.08514 11.9277 1.22256 12.0904 1.3971 12.2047C1.57166 12.3191 1.77576 12.3801 1.98442 12.3802Z" fill="url(#paint0_linear_1611_129)"/>
<path d="M109.865 21.1459H86.4585V13.4376H115.948V5.72927H86.3804C85.37 5.7238 84.3689 5.91734 83.4335 6.29885C82.4981 6.68041 81.6465 7.24245 80.9288 7.95291C80.2106 8.66338 79.6392 9.50838 79.2476 10.4396C78.8559 11.3708 78.6512 12.3701 78.646 13.3803V21.1928C78.6502 22.2039 78.8533 23.2043 79.2444 24.1367C79.6356 25.0692 80.2064 25.9154 80.9246 26.6269C81.6434 27.3385 82.495 27.9015 83.4309 28.2837C84.3668 28.6659 85.3694 28.8597 86.3804 28.8543H109.818V36.5626H79.2033V44.2709H109.865C110.875 44.2765 111.876 44.0829 112.812 43.7014C113.747 43.3198 114.598 42.7578 115.316 42.0473C116.035 41.3368 116.606 40.4919 116.998 39.5606C117.389 38.6294 117.594 37.6301 117.599 36.6199V28.8074C117.595 27.7963 117.392 26.7959 117.001 25.8635C116.61 24.931 116.039 24.0848 115.32 23.3733C114.602 22.6617 113.75 22.0987 112.814 21.7166C111.878 21.3344 110.876 21.1405 109.865 21.1459Z" fill="white"/>
<path d="M155.208 5.72917H131.714C130.702 5.72094 129.698 5.91245 128.76 6.29276C127.823 6.67307 126.969 7.23464 126.249 7.94542C125.528 8.65615 124.955 9.50203 124.562 10.4346C124.169 11.3672 123.964 12.3682 123.958 13.3802V36.6198C123.964 37.6318 124.169 38.6328 124.562 39.5654C124.955 40.498 125.528 41.3439 126.249 42.0546C126.969 42.7654 127.823 43.3269 128.76 43.7072C129.698 44.0876 130.702 44.2791 131.714 44.2708H155.208C156.219 44.2763 157.22 44.0828 158.155 43.7013C159.091 43.3197 159.942 42.7577 160.66 42.0472C161.378 41.3367 161.95 40.4917 162.341 39.5605C162.733 38.6293 162.938 37.63 162.943 36.6198V13.3802C162.938 12.37 162.733 11.3707 162.341 10.4395C161.95 9.50828 161.378 8.66328 160.66 7.95281C159.942 7.24234 159.091 6.68031 158.155 6.29875C157.22 5.91724 156.219 5.7237 155.208 5.72917ZM155.151 36.5625H131.771V13.4375H155.141L155.151 36.5625Z" fill="white"/>
<path d="M237.5 5.72924H214.583C213.573 5.72377 212.572 5.91731 211.637 6.29882C210.701 6.68038 209.85 7.24241 209.132 7.95288C208.414 8.66335 207.842 9.50835 207.451 10.4395C207.059 11.3708 206.854 12.3701 206.849 13.3803V44.2709H214.662V31.6094H237.474V44.2709H245.287V13.3803C245.281 12.3656 245.075 11.3621 244.68 10.4274C244.285 9.49278 243.71 8.64549 242.986 7.93429C242.262 7.22314 241.405 6.66221 240.463 6.28377C239.522 5.90533 238.515 5.71689 237.5 5.72924ZM237.443 23.9011H214.63V13.4376H237.443V23.9011Z" fill="white"/>
<path d="M328.724 5.72927H305.807C304.797 5.7238 303.796 5.91734 302.86 6.29885C301.925 6.68041 301.074 7.24245 300.356 7.95291C299.637 8.66338 299.066 9.50838 298.674 10.4396C298.283 11.3708 298.078 12.3701 298.073 13.3803V44.2709H305.885V31.6095H328.646V44.2709H336.458V13.3803C336.453 12.3701 336.248 11.3708 335.857 10.4396C335.465 9.50838 334.894 8.66338 334.175 7.95291C333.457 7.24245 332.606 6.68041 331.671 6.29885C330.735 5.91734 329.734 5.7238 328.724 5.72927ZM328.646 23.9011H305.833V13.4376H328.646V23.9011Z" fill="white"/>
<path d="M283.333 36.5626H280.208L269.037 8.95839C268.654 8.00605 267.995 7.18985 267.145 6.61454C266.295 6.03917 265.292 5.73089 264.266 5.72922H257.333C256.66 5.72579 255.992 5.85511 255.368 6.10974C254.744 6.36443 254.177 6.73943 253.698 7.21339C253.219 7.6874 252.839 8.25099 252.578 8.87214C252.317 9.49323 252.181 10.1597 252.177 10.8334V44.2709H259.99V13.4376H263.115L274.281 41.0417C274.67 41.9922 275.335 42.8051 276.188 43.3766C277.041 43.9481 278.046 44.2521 279.073 44.2501H286.005C286.679 44.2535 287.347 44.1242 287.97 43.8695C288.594 43.6149 289.162 43.2398 289.641 42.7659C290.119 42.2919 290.5 41.7283 290.761 41.1072C291.022 40.486 291.158 39.8196 291.162 39.1459V5.72922H283.333V36.5626Z" fill="white"/>
<path d="M177.656 5.72919H169.844V36.6198C169.849 37.6323 170.055 38.6337 170.448 39.5666C170.841 40.4995 171.415 41.3456 172.135 42.0565C172.856 42.7673 173.711 43.3288 174.649 43.7088C175.587 44.0888 176.592 44.2798 177.604 44.2709H201.042V36.5625H177.656V5.72919Z" fill="white"/>
<defs>
<linearGradient id="paint0_linear_1611_129" x1="5.63025" y1="51.1927" x2="51.5053" y2="-0.526053" gradientUnits="userSpaceOnUse">
<stop offset="0.08" stop-color="#9945FF"/>
<stop offset="0.3" stop-color="#8752F3"/>
<stop offset="0.5" stop-color="#5497D5"/>
<stop offset="0.6" stop-color="#43B4CA"/>
<stop offset="0.72" stop-color="#28E0B9"/>
<stop offset="0.97" stop-color="#19FB9B"/>
</linearGradient>
</defs>
</svg>
