<svg width="35" height="34" viewBox="0 0 35 34" fill="none" xmlns="http://www.w3.org/2000/svg">
<g clip-path="url(#clip0_2623_1023)">
<path d="M33.4405 9.9873C33.4405 9.66735 33.4405 9.3474 33.4269 9.02745C33.4176 8.32931 33.3557 7.63286 33.2419 6.944C33.1234 6.25181 32.9021 5.58124 32.5853 4.95455C31.9461 3.69792 30.9253 2.67605 29.6694 2.03559C29.0439 1.7203 28.3749 1.50003 27.6845 1.38204C26.9941 1.26843 26.2961 1.2071 25.5965 1.19856C25.2765 1.18947 24.9566 1.18188 24.6366 1.18188H10.4573C10.1373 1.18188 9.81737 1.18188 9.49742 1.19553C9.32304 1.19553 9.14866 1.20615 8.97428 1.21524C8.45112 1.23708 7.92992 1.29279 7.41397 1.38204C6.89428 1.47114 6.38583 1.61656 5.89762 1.81572C5.73689 1.88244 5.57717 1.95623 5.41846 2.0371C4.95047 2.27534 4.51224 2.568 4.11288 2.909C3.98046 3.02222 3.85207 3.141 3.72773 3.26534C3.23205 3.7609 2.81756 4.33147 2.49949 4.95607C2.18597 5.58281 1.96774 6.25283 1.85201 6.94399C1.73877 7.63291 1.67744 8.32935 1.66854 9.02745C1.65944 9.3474 1.65186 9.67341 1.65186 9.9873C1.65186 10.3664 1.65186 10.7455 1.65186 11.1261V23.0279C1.65186 23.4085 1.65186 23.786 1.65186 24.1666C1.65186 24.4866 1.65186 24.8065 1.66702 25.125C1.67565 25.8246 1.73698 26.5226 1.8505 27.213C1.96833 27.9039 2.18861 28.5734 2.50404 29.1994C3.14541 30.4552 4.1677 31.4759 5.42452 32.1153C6.04998 32.4307 6.71897 32.6509 7.40942 32.7689C8.0998 32.8825 8.79779 32.9438 9.49742 32.9523C9.81737 32.9614 10.1373 32.9645 10.4573 32.966C10.8364 32.966 11.2154 32.966 11.596 32.966H23.4978C23.8769 32.966 24.256 32.966 24.6366 32.966C24.9566 32.966 25.2765 32.966 25.5965 32.9523C26.2961 32.9438 26.9941 32.8825 27.6845 32.7689C28.3749 32.6509 29.0439 32.4306 29.6694 32.1153C30.9246 31.4752 31.9452 30.4546 32.5853 29.1994C32.9013 28.5735 33.1221 27.904 33.2403 27.213C33.3539 26.5226 33.4153 25.8246 33.4238 25.125C33.4329 24.805 33.436 24.4866 33.4375 24.1666C33.4375 23.786 33.4375 23.4085 33.4375 23.0279V11.1261C33.442 10.747 33.442 10.3664 33.4405 9.9873V9.9873Z" fill="#F05138" stroke="black"/>
<path d="M26.843 20.8065C26.8779 20.6867 26.9143 20.5684 26.9446 20.4456C28.2638 15.1885 25.0431 8.97447 19.5949 5.70068C20.7756 7.16688 21.6134 8.87855 22.0471 10.7104C22.4808 12.5422 22.4994 14.4479 22.1014 16.2878C22.0184 16.5874 21.9197 16.8825 21.8057 17.1718C21.6844 17.093 21.5328 17.002 21.3296 16.8898C17.2439 14.2086 13.4559 11.0991 10.0298 7.61431C12.0876 10.6706 14.3823 13.5606 16.8928 16.2575C13.4419 14.0692 10.1786 11.5982 7.13662 8.86984C7.53078 9.5168 7.97652 10.1309 8.46948 10.7061C11.3697 14.5809 14.7303 18.0887 18.4774 21.1522C16.8076 22.0471 14.9425 22.5154 13.0481 22.5154C11.1536 22.5154 9.28858 22.0471 7.61882 21.1522C6.6399 20.6923 5.70889 20.1366 4.83936 19.4934C6.62738 22.3337 9.2321 24.5674 12.3119 25.9014C13.9256 26.6779 15.6926 27.0833 17.4833 27.088C19.2741 27.0927 21.0432 26.6966 22.661 25.9287L22.7034 25.9029C22.8187 25.8408 22.9324 25.7786 23.0446 25.7119C23.4806 25.4092 23.9763 25.2033 24.4985 25.108C25.0206 25.0128 25.5571 25.0304 26.0719 25.1596C26.5867 25.2889 27.0679 25.5269 27.4831 25.8575C27.8983 26.1881 28.2379 26.6038 28.4792 27.0766C28.831 27.768 29.574 24.1652 26.843 20.8065Z" fill="white" stroke="black"/>
</g>
<defs>
<clipPath id="clip0_2623_1023">
<rect width="34" height="34" fill="white" transform="translate(0.333496)"/>
</clipPath>
</defs>
</svg>
