<svg xmlns="http://www.w3.org/2000/svg" width="51.731" height="51.07" viewBox="0 0 51.731 51.07"><g id="terraform" transform="translate(-23.108 -24.439)"><path id="Path_26413" data-name="Path 26413" d="M24.411 110.851v-.942h-.862v.942h-.441v-2.263h.441v.948h.862v-.948h.44v2.263zm2.053.0h-.349l-.031-.11a.964.964.0 0 1-.507.143c-.31.0-.443-.2-.443-.486.0-.332.15-.459.5-.459h.409v-.171c0-.181-.053-.245-.325-.245a2.458 2.458.0 0 0-.471.05l-.052-.312a2.312 2.312.0 0 1 .583-.077c.534.0.691.181.691.59zm-.426-.617h-.314c-.139.0-.178.037-.178.161s.039.164.172.164a.686.686.0 0 0 .321-.084zm1.318.65a2.07 2.07.0 0 1-.586-.094l.059-.311a1.97 1.97.0 0 0 .507.07c.188.0.216-.041.216-.164.0-.1-.02-.151-.3-.214-.416-.1-.465-.2-.465-.513s.15-.473.636-.473a2.324 2.324.0 0 1 .51.057l-.042.325a3.1 3.1.0 0 0-.467-.047c-.185.0-.217.04-.217.14.0.131.01.141.241.2.475.121.52.181.52.517.0.315-.1.509-.614.509m1.95-.033v-1.14c0-.087-.038-.131-.135-.131a1.206 1.206.0 0 0-.444.138v1.133H28.3v-2.295l.426.063v.723a1.546 1.546.0 0 1 .621-.157c.283.0.384.191.384.483v1.183zm.784-2.263h.426v.4H30.09zm0 .63h.426v1.632H30.09zm.767.013c0-.409.248-.647.827-.647a2.748 2.748.0 0 1 .633.074l-.049.365a3.567 3.567.0 0 0-.569-.057c-.3.0-.4.1-.4.339v.858c0 .238.1.339.4.339a3.617 3.617.0 0 0 .569-.057l.049.365a2.723 2.723.0 0 1-.633.074c-.579.0-.827-.238-.827-.647zm2.4 1.653c-.583.0-.741-.308-.741-.643v-.413c0-.335.158-.644.741-.644s.74.308.74.644v.413c0 .335-.157.643-.74.643m0-1.35c-.227.0-.315.1-.315.281v.439c0 .184.087.282.315.282s.315-.1.315-.282v-.439c0-.184-.088-.281-.315-.281m1.94.026a3.46 3.46.0 0 0-.451.238v1.053H34.32v-1.632h.36l.028.18a1.961 1.961.0 0 1 .447-.214zm1.7.748a.5.5.0 0 1-.562.576 2.447 2.447.0 0 1-.454-.047v.667l-.426.063v-2.349H35.8l.042.137a.916.916.0 0 1 .538-.171c.342.0.523.194.523.566zm-1.016.184a1.948 1.948.0 0 0 .377.044c.153.0.212-.071.212-.218v-.577c0-.134-.052-.207-.209-.207a.615.615.0 0 0-.38.147z" transform="translate(0 -46.644)"/><path id="Path_26414" data-name="Path 26414" d="M25.706 119.437h-2.6v-1.55h6.954v1.55h-2.6v7.75H25.706z" transform="translate(-0.001 -51.819)"/><path id="Path_26415" data-name="Path 26415" d="M38.55 128.868a7.114 7.114.0 0 0 2.08-.321l.266 1.284a7.289 7.289.0 0 1-2.5.433c-2.137.0-2.877-.992-2.877-2.625v-1.8c0-1.438.642-2.653 2.821-2.653s2.667 1.271 2.667 2.737v1.452H37.224v.349c0 .824.293 1.145 1.327 1.145m-1.327-2.862h2.164v-.335c0-.642-.2-1.089-1.033-1.089s-1.131.447-1.131 1.089z" transform="translate(-6.883 -54.756)"/><path id="Path_26416" data-name="Path 26416" d="M53.694 124.749a13.288 13.288.0 0 0-1.8.992v4.384h-1.7v-6.8h1.438l.111.754a7.617 7.617.0 0 1 1.788-.893z" transform="translate(-15.017 -54.756)"/><path id="Path_26417" data-name="Path 26417" d="M63.034 124.749a13.289 13.289.0 0 0-1.8.992v4.384h-1.7v-6.8h1.438l.111.754a7.617 7.617.0 0 1 1.788-.893z" transform="translate(-20.196 -54.756)"/><path id="Path_26418" data-name="Path 26418" d="M73.562 130.125h-1.4l-.126-.462a3.711 3.711.0 0 1-2.025.6c-1.243.0-1.773-.852-1.773-2.025.0-1.382.6-1.913 1.982-1.913h1.634v-.711c0-.755-.21-1.02-1.3-1.02a9.5 9.5.0 0 0-1.885.209l-.21-1.3a8.906 8.906.0 0 1 2.332-.321c2.137.0 2.765.754 2.765 2.457zm-1.7-2.57H70.6c-.559.0-.712.154-.712.67.0.474.154.684.684.684a2.685 2.685.0 0 0 1.285-.349z" transform="translate(-25.027 -54.756)"/><path id="Path_26419" data-name="Path 26419" d="M86.288 118.142a4.978 4.978.0 0 0-.977-.111c-.67.0-.768.293-.768.809v.852h1.732l-.1 1.355H84.543v5.446h-1.7v-5.446H81.75v-1.355h1.089v-.949c0-1.41.656-2.108 2.164-2.108a5.4 5.4.0 0 1 1.466.2z" transform="translate(-32.518 -51.124)"/><path id="Path_26420" data-name="Path 26420" d="M95.712 130.264c-2.332.0-2.961-1.285-2.961-2.681v-1.718c0-1.4.629-2.68 2.961-2.68s2.96 1.284 2.96 2.68v1.718c0 1.4-.629 2.681-2.96 2.681m0-5.627c-.908.0-1.257.4-1.257 1.173v1.83c0 .768.349 1.173 1.257 1.173s1.256-.4 1.256-1.173v-1.83c0-.768-.349-1.173-1.256-1.173" transform="translate(-38.618 -54.756)"/><path id="Path_26421" data-name="Path 26421" d="M111.52 124.749a13.343 13.343.0 0 0-1.8.992v4.384h-1.7v-6.8h1.438l.111.754a7.626 7.626.0 0 1 1.788-.893z" transform="translate(-47.083 -54.756)"/><path id="Path_26422" data-name="Path 26422" d="M121.376 130.125v-4.748c0-.363-.154-.544-.545-.544a4.706 4.706.0 0 0-1.773.572v4.72h-1.7v-6.8h1.3l.168.573a6.81 6.81.0 0 1 2.723-.712 1.293 1.293.0 0 1 1.285.726 6.666 6.666.0 0 1 2.736-.726c1.131.0 1.536.8 1.536 2.011v4.929h-1.7v-4.748c0-.363-.153-.544-.544-.544a4.505 4.505.0 0 0-1.774.572v4.72z" transform="translate(-52.261 -54.756)"/><path id="Path_26423" data-name="Path 26423" d="M70.588 38.078l9.428 5.444V54.409l-9.428-5.444z" transform="translate(-26.329 -7.563)" fill="#5c4ee5" fill-rule="evenodd"/><path id="Path_26424" data-name="Path 26424" d="M94.07 43.522V54.408l9.429-5.442V38.078z" transform="translate(-39.35 -7.563)" fill="#4040b2" fill-rule="evenodd"/><path id="Path_26425" data-name="Path 26425" d="M47.106 24.438V35.324l9.428 5.444V29.882z" transform="translate(-13.307)" fill="#5c4ee5" fill-rule="evenodd"/><path id="Path_26426" data-name="Path 26426" d="M70.589 76.081l9.427 5.444V70.638l-9.427-5.444z" transform="translate(-26.329 -22.6)" fill="#5c4ee5" fill-rule="evenodd"/></g></svg>