<svg width="21" height="19" viewBox="0 0 21 19" fill="none" xmlns="http://www.w3.org/2000/svg">
<path fill-rule="evenodd" clip-rule="evenodd" d="M18.526 3.346C19.416 2.784 20.099 1.894 20.419 0.833C19.586 1.354 18.665 1.731 17.683 1.935C16.899 1.051 15.779 0.5 14.539 0.5C12.159 0.5 10.232 2.535 10.232 5.044C10.232 5.4 10.268 5.747 10.342 6.078C6.762 5.888 3.588 4.082 1.462 1.331C1.091 2.004 0.879 2.784 0.879 3.616C0.879 5.192 1.639 6.583 2.796 7.399C2.089 7.376 1.425 7.169 0.843 6.831V6.887C0.843 9.089 2.327 10.927 4.301 11.342C3.938 11.449 3.559 11.502 3.164 11.502C2.887 11.502 2.616 11.475 2.354 11.422C2.902 13.226 4.493 14.542 6.379 14.577C4.903 15.796 3.046 16.521 1.028 16.521C0.68 16.521 0.337 16.501 0 16.459C1.907 17.747 4.171 18.5 6.604 18.5C14.53 18.5 18.861 11.576 18.861 5.571C18.861 5.374 18.859 5.177 18.851 4.984C19.692 4.343 20.424 3.542 21 2.631C20.227 2.992 19.396 3.237 18.526 3.346Z" fill="white"/>
</svg>
