<svg xmlns="http://www.w3.org/2000/svg" width="42" height="53.621" viewBox="0 0 42 53.621"><g id="vagrant" transform="translate(-33.842 -24.439)"><path id="Path_26402" data-name="Path 26402" d="M35.139 110.841V109.9H34.28v.938h-.438v-2.253h.438v.945h.859v-.945h.438v2.253zm2.044.0h-.347l-.031-.11a.959.959.0 0 1-.5.143c-.309.0-.441-.2-.441-.484.0-.331.15-.457.494-.457h.406v-.17c0-.18-.052-.243-.323-.243a2.451 2.451.0 0 0-.469.05l-.052-.31a2.28 2.28.0 0 1 .581-.077c.532.0.688.18.688.587zm-.424-.615h-.313c-.139.0-.177.037-.177.161s.038.164.17.164a.679.679.0 0 0 .319-.084zm1.313.648a2.075 2.075.0 0 1-.584-.094l.059-.31a1.953 1.953.0 0 0 .5.07c.188.0.216-.04.216-.163.0-.1-.021-.15-.3-.213-.414-.1-.462-.2-.462-.511s.15-.47.633-.47a2.311 2.311.0 0 1 .508.057l-.042.323a3.076 3.076.0 0 0-.465-.047c-.185.0-.216.04-.216.14.0.13.011.14.24.2.473.121.518.181.518.515.0.314-.1.507-.612.507m1.942-.033v-1.135c0-.087-.038-.13-.135-.13a1.2 1.2.0 0 0-.442.137v1.128h-.424v-2.285l.424.063v.72a1.541 1.541.0 0 1 .619-.157c.282.0.382.19.382.481v1.178zm.78-2.253h.424v.4h-.424zm0 .628h.424v1.625h-.424zm.763.013c0-.407.247-.644.824-.644a2.732 2.732.0 0 1 .629.073l-.048.364a3.568 3.568.0 0 0-.567-.057c-.3.0-.4.1-.4.337v.855c0 .237.1.337.4.337a3.567 3.567.0 0 0 .567-.056l.048.363a2.707 2.707.0 0 1-.629.074c-.577.0-.824-.237-.824-.644zm2.39 1.646c-.58.0-.737-.307-.737-.64v-.411c0-.334.157-.641.737-.641s.737.307.737.641v.411c0 .333-.157.64-.737.64m0-1.345c-.226.0-.313.1-.313.28v.437c0 .184.087.281.313.281s.313-.1.313-.281v-.437c0-.184-.087-.28-.313-.28m1.931.027a3.31 3.31.0 0 0-.449.237v1.048h-.424v-1.625h.358l.028.18a1.907 1.907.0 0 1 .445-.213zm1.7.744a.5.5.0 0 1-.56.574 2.442 2.442.0 0 1-.452-.047v.665l-.424.063v-2.339h.338l.041.137a.914.914.0 0 1 .536-.17c.341.0.521.193.521.564zm-1.012.183a1.944 1.944.0 0 0 .376.044c.153.0.212-.07.212-.217v-.574c0-.134-.052-.207-.209-.207a.613.613.0 0 0-.379.147z" transform="translate(0 -46.794)"/><path id="Path_26403" data-name="Path 26403" d="M40.172 117.8H42L39.221 127.1h-2.6L33.842 117.8h1.83l2.25 7.755z" transform="translate(0 -51.935)"/><path id="Path_26404" data-name="Path 26404" d="M57.021 130.064h-1.4L55.5 129.6a3.719 3.719.0 0 1-2.026.6c-1.244.0-1.774-.852-1.774-2.026.0-1.384.6-1.914 1.984-1.914h1.635v-.713c0-.755-.21-1.02-1.3-1.02a9.527 9.527.0 0 0-1.886.209l-.209-1.3a8.874 8.874.0 0 1 2.333-.321c2.138.0 2.767.754 2.767 2.459zm-1.7-2.57H54.058c-.559.0-.713.153-.713.67.0.475.154.685.685.685a2.691 2.691.0 0 0 1.285-.349z" transform="translate(-9.933 -54.896)"/><path id="Path_26405" data-name="Path 26405" d="M68.089 128.233a.733.733.0 0 0-.406.545c0 .181.112.266.378.293.754.084 1.174.126 1.97.209a1.418 1.418.0 0 1 1.453 1.649c0 1.453-.531 2.026-3.074 2.026a9.916 9.916.0 0 1-2.627-.349l.21-1.271a9.453 9.453.0 0 0 2.292.293c1.355.0 1.621-.1 1.621-.545.0-.419-.126-.489-.643-.544-.783-.084-1.1-.126-1.971-.224-.963-.112-1.341-.433-1.341-1.3a1.442 1.442.0 0 1 .713-1.16 1.975 1.975.0 0 1-.922-1.83v-.642c.028-1.412.769-2.264 2.739-2.264a4.594 4.594.0 0 1 1.159.14h2.1v.851c-.237.071-.517.14-.754.21a2.341 2.341.0 0 1 .237 1.063v.642c0 1.383-.838 2.222-2.739 2.222a3.471 3.471.0 0 1-.391-.014m.391-3.744c-.839.0-1.131.307-1.131.951v.516c0 .67.335.922 1.131.922s1.146-.266 1.146-.922v-.516c0-.644-.294-.951-1.146-.951" transform="translate(-17.745 -54.895)"/><path id="Path_26406" data-name="Path 26406" d="M84.489 124.684a13.4 13.4.0 0 0-1.8.993v4.387h-1.7v-6.8h1.44l.111.754a7.635 7.635.0 0 1 1.788-.894z" transform="translate(-26.224 -54.895)"/><path id="Path_26407" data-name="Path 26407" d="M95.06 130.064h-1.4l-.126-.461a3.718 3.718.0 0 1-2.026.6c-1.243.0-1.774-.852-1.774-2.026.0-1.384.6-1.914 1.984-1.914h1.635v-.713c0-.755-.21-1.02-1.3-1.02a9.528 9.528.0 0 0-1.886.209l-.209-1.3a8.877 8.877.0 0 1 2.333-.321c2.138.0 2.767.754 2.767 2.459zm-1.7-2.57H92.1c-.559.0-.713.153-.713.67.0.475.154.685.685.685a2.694 2.694.0 0 0 1.286-.349z" transform="translate(-31.094 -54.896)"/><path id="Path_26408" data-name="Path 26408" d="M108.12 130.064v-4.751c0-.363-.154-.544-.545-.544a4.7 4.7.0 0 0-1.775.573v4.722h-1.7v-6.8h1.3l.168.573a6.814 6.814.0 0 1 2.725-.712c1.132.0 1.537.8 1.537 2.011v4.932z" transform="translate(-39.082 -54.896)"/><path id="Path_26409" data-name="Path 26409" d="M122.809 127.7a4.7 4.7.0 0 1-1.495.266c-1.243.0-1.872-.587-1.872-1.8v-3.787h-1.021v-1.355h1.021v-1.691l1.7-.237v1.928h1.746l-.111 1.355h-1.635v3.563a.537.537.0 0 0 .615.6 3.285 3.285.0 0 0 .853-.14z" transform="translate(-47.051 -52.653)"/><path id="Path_26410" data-name="Path 26410" d="M97.78 33.54V30.394l-7.551 4.393v2.654L84.189 50.476l-3.021 2.081V62.1l6.474-3.733z" transform="translate(-26.327 -3.313)" fill="#1159cc"/><path id="Path_26411" data-name="Path 26411" d="M69.808 48.007l-4.53-10.571V34.447l-.032-.016-4.5 2.6v2.654l6.04 13.605 3.02-1.493z" transform="translate(-14.968 -5.559)" fill="#1159cc"/><path id="Path_26412" data-name="Path 26412" d="M72.425 24.438l-7.548 4.421v0 0h0v3.015L60.342 42.448v3.534l-3.02 1.751-6.041-13.6V31.47l4.532-2.608-7.553-4.423-4.53 2.643v3.241l10.2 24.762 6.415 3.7v-9.3l3.021-1.752-.039-.022L69.4 34.129V31.474v0l7.551-4.388z" transform="translate(-5.501)" fill="#127eff"/></g></svg>